<svg width="531" height="378" viewBox="0 0 531 378" fill="none" xmlns="http://www.w3.org/2000/svg">
<path d="M510.706 1H20C9.50659 1 1 9.50659 1 20V357.227C1 367.72 9.50659 376.227 20 376.227H510.706C521.199 376.227 529.706 367.72 529.706 357.227V20C529.706 9.50659 521.199 1 510.706 1Z" stroke="#00D0BF" stroke-width="2"/>
<path d="M69.677 263.866L65.837 274.336H63.287L59.447 263.866H61.697L64.577 272.191L67.442 263.866H69.677ZM78.6611 270.001C78.6611 270.301 78.6411 270.571 78.6011 270.811H72.5261C72.5761 271.411 72.7861 271.881 73.1561 272.221C73.5261 272.561 73.9811 272.731 74.5211 272.731C75.3011 272.731 75.8561 272.396 76.1861 271.726H78.4511C78.2111 272.526 77.7511 273.186 77.0711 273.706C76.3911 274.216 75.5561 274.471 74.5661 274.471C73.7661 274.471 73.0461 274.296 72.4061 273.946C71.7761 273.586 71.2811 273.081 70.9211 272.431C70.5711 271.781 70.3961 271.031 70.3961 270.181C70.3961 269.321 70.5711 268.566 70.9211 267.916C71.2711 267.266 71.7611 266.766 72.3911 266.416C73.0211 266.066 73.7461 265.891 74.5661 265.891C75.3561 265.891 76.0611 266.061 76.6811 266.401C77.3111 266.741 77.7961 267.226 78.1361 267.856C78.4861 268.476 78.6611 269.191 78.6611 270.001ZM76.4861 269.401C76.4761 268.861 76.2811 268.431 75.9011 268.111C75.5211 267.781 75.0561 267.616 74.5061 267.616C73.9861 267.616 73.5461 267.776 73.1861 268.096C72.8361 268.406 72.6211 268.841 72.5411 269.401H76.4861ZM82.2939 267.316C82.5639 266.876 82.9139 266.531 83.3439 266.281C83.7839 266.031 84.2839 265.906 84.8439 265.906V268.111H84.2889C83.6289 268.111 83.1289 268.266 82.7889 268.576C82.4589 268.886 82.2939 269.426 82.2939 270.196V274.336H80.1939V266.026H82.2939V267.316ZM89.4383 274.471C88.7583 274.471 88.1483 274.351 87.6083 274.111C87.0683 273.861 86.6383 273.526 86.3183 273.106C86.0083 272.686 85.8383 272.221 85.8083 271.711H87.9233C87.9633 272.031 88.1183 272.296 88.3883 272.506C88.6683 272.716 89.0133 272.821 89.4233 272.821C89.8233 272.821 90.1333 272.741 90.3533 272.581C90.5833 272.421 90.6983 272.216 90.6983 271.966C90.6983 271.696 90.5583 271.496 90.2783 271.366C90.0083 271.226 89.5733 271.076 88.9733 270.916C88.3533 270.766 87.8433 270.611 87.4433 270.451C87.0533 270.291 86.7133 270.046 86.4233 269.716C86.1433 269.386 86.0033 268.941 86.0033 268.381C86.0033 267.921 86.1333 267.501 86.3933 267.121C86.6633 266.741 87.0433 266.441 87.5333 266.221C88.0333 266.001 88.6183 265.891 89.2883 265.891C90.2783 265.891 91.0683 266.141 91.6583 266.641C92.2483 267.131 92.5733 267.796 92.6333 268.636H90.6233C90.5933 268.306 90.4533 268.046 90.2033 267.856C89.9633 267.656 89.6383 267.556 89.2283 267.556C88.8483 267.556 88.5533 267.626 88.3433 267.766C88.1433 267.906 88.0433 268.101 88.0433 268.351C88.0433 268.631 88.1833 268.846 88.4633 268.996C88.7433 269.136 89.1783 269.281 89.7683 269.431C90.3683 269.581 90.8633 269.736 91.2533 269.896C91.6433 270.056 91.9783 270.306 92.2583 270.646C92.5483 270.976 92.6983 271.416 92.7083 271.966C92.7083 272.446 92.5733 272.876 92.3033 273.256C92.0433 273.636 91.6633 273.936 91.1633 274.156C90.6733 274.366 90.0983 274.471 89.4383 274.471ZM95.4972 265.036C95.1272 265.036 94.8172 264.921 94.5672 264.691C94.3272 264.451 94.2072 264.156 94.2072 263.806C94.2072 263.456 94.3272 263.166 94.5672 262.936C94.8172 262.696 95.1272 262.576 95.4972 262.576C95.8672 262.576 96.1722 262.696 96.4122 262.936C96.6622 263.166 96.7872 263.456 96.7872 263.806C96.7872 264.156 96.6622 264.451 96.4122 264.691C96.1722 264.921 95.8672 265.036 95.4972 265.036ZM96.5322 266.026V274.336H94.4322V266.026H96.5322ZM102.297 274.471C101.497 274.471 100.777 274.296 100.137 273.946C99.497 273.586 98.992 273.081 98.622 272.431C98.262 271.781 98.082 271.031 98.082 270.181C98.082 269.331 98.267 268.581 98.637 267.931C99.017 267.281 99.532 266.781 100.182 266.431C100.832 266.071 101.557 265.891 102.357 265.891C103.157 265.891 103.882 266.071 104.532 266.431C105.182 266.781 105.692 267.281 106.062 267.931C106.442 268.581 106.632 269.331 106.632 270.181C106.632 271.031 106.437 271.781 106.047 272.431C105.667 273.081 105.147 273.586 104.487 273.946C103.837 274.296 103.107 274.471 102.297 274.471ZM102.297 272.641C102.677 272.641 103.032 272.551 103.362 272.371C103.702 272.181 103.972 271.901 104.172 271.531C104.372 271.161 104.472 270.711 104.472 270.181C104.472 269.391 104.262 268.786 103.842 268.366C103.432 267.936 102.927 267.721 102.327 267.721C101.727 267.721 101.222 267.936 100.812 268.366C100.412 268.786 100.212 269.391 100.212 270.181C100.212 270.971 100.407 271.581 100.797 272.011C101.197 272.431 101.697 272.641 102.297 272.641ZM112.777 265.906C113.767 265.906 114.567 266.221 115.177 266.851C115.787 267.471 116.092 268.341 116.092 269.461V274.336H113.992V269.746C113.992 269.086 113.827 268.581 113.497 268.231C113.167 267.871 112.717 267.691 112.147 267.691C111.567 267.691 111.107 267.871 110.767 268.231C110.437 268.581 110.272 269.086 110.272 269.746V274.336H108.172V266.026H110.272V267.061C110.552 266.701 110.907 266.421 111.337 266.221C111.777 266.011 112.257 265.906 112.777 265.906ZM121.169 265.336V263.401H124.784V274.336H122.624V265.336H121.169ZM128.028 274.441C127.648 274.441 127.333 274.326 127.083 274.096C126.843 273.856 126.723 273.561 126.723 273.211C126.723 272.861 126.843 272.571 127.083 272.341C127.333 272.101 127.648 271.981 128.028 271.981C128.398 271.981 128.703 272.101 128.943 272.341C129.183 272.571 129.303 272.861 129.303 273.211C129.303 273.561 129.183 273.856 128.943 274.096C128.703 274.326 128.398 274.441 128.028 274.441ZM130.755 268.726C130.755 266.996 131.065 265.641 131.685 264.661C132.315 263.681 133.355 263.191 134.805 263.191C136.255 263.191 137.29 263.681 137.91 264.661C138.54 265.641 138.855 266.996 138.855 268.726C138.855 270.466 138.54 271.831 137.91 272.821C137.29 273.811 136.255 274.306 134.805 274.306C133.355 274.306 132.315 273.811 131.685 272.821C131.065 271.831 130.755 270.466 130.755 268.726ZM136.785 268.726C136.785 267.986 136.735 267.366 136.635 266.866C136.545 266.356 136.355 265.941 136.065 265.621C135.785 265.301 135.365 265.141 134.805 265.141C134.245 265.141 133.82 265.301 133.53 265.621C133.25 265.941 133.06 266.356 132.96 266.866C132.87 267.366 132.825 267.986 132.825 268.726C132.825 269.486 132.87 270.126 132.96 270.646C133.05 271.156 133.24 271.571 133.53 271.891C133.82 272.201 134.245 272.356 134.805 272.356C135.365 272.356 135.79 272.201 136.08 271.891C136.37 271.571 136.56 271.156 136.65 270.646C136.74 270.126 136.785 269.486 136.785 268.726ZM141.622 274.441C141.242 274.441 140.927 274.326 140.677 274.096C140.437 273.856 140.317 273.561 140.317 273.211C140.317 272.861 140.437 272.571 140.677 272.341C140.927 272.101 141.242 271.981 141.622 271.981C141.992 271.981 142.297 272.101 142.537 272.341C142.777 272.571 142.897 272.861 142.897 273.211C142.897 273.561 142.777 273.856 142.537 274.096C142.297 274.326 141.992 274.441 141.622 274.441ZM144.378 266.281C144.428 265.281 144.778 264.511 145.428 263.971C146.088 263.421 146.953 263.146 148.023 263.146C148.753 263.146 149.378 263.276 149.898 263.536C150.418 263.786 150.808 264.131 151.068 264.571C151.338 265.001 151.473 265.491 151.473 266.041C151.473 266.671 151.308 267.206 150.978 267.646C150.658 268.076 150.273 268.366 149.823 268.516V268.576C150.403 268.756 150.853 269.076 151.173 269.536C151.503 269.996 151.668 270.586 151.668 271.306C151.668 271.906 151.528 272.441 151.248 272.911C150.978 273.381 150.573 273.751 150.033 274.021C149.503 274.281 148.863 274.411 148.113 274.411C146.983 274.411 146.063 274.126 145.353 273.556C144.643 272.986 144.268 272.146 144.228 271.036H146.268C146.288 271.526 146.453 271.921 146.763 272.221C147.083 272.511 147.518 272.656 148.068 272.656C148.578 272.656 148.968 272.516 149.238 272.236C149.518 271.946 149.658 271.576 149.658 271.126C149.658 270.526 149.468 270.096 149.088 269.836C148.708 269.576 148.118 269.446 147.318 269.446H146.883V267.721H147.318C148.738 267.721 149.448 267.246 149.448 266.296C149.448 265.866 149.318 265.531 149.058 265.291C148.808 265.051 148.443 264.931 147.963 264.931C147.493 264.931 147.128 265.061 146.868 265.321C146.618 265.571 146.473 265.891 146.433 266.281H144.378Z" fill="white"/>
<path d="M83.797 308.667V295.481L72.377 288.888L60.957 295.481V308.668L72.377 315.261L83.797 308.667Z" fill="#00EBD7" stroke="#000E33" stroke-linecap="round" stroke-linejoin="round"/>
<path d="M72.377 314.927V302.074L60.957 295.481V308.668L72.377 315.261V314.927Z" fill="#006B62" stroke="#000E33" stroke-linecap="round" stroke-linejoin="round"/>
<path d="M72.377 314.927V302.074L83.797 295.481V308.668L72.377 315.261V314.927Z" fill="#00D1C0" stroke="#000E33" stroke-linecap="round" stroke-linejoin="round"/>
<path d="M127.254 308.667V295.481L115.834 288.888L104.414 295.481V308.668L115.834 315.261L127.254 308.667Z" fill="#00EBD7" stroke="#000E33" stroke-linecap="round" stroke-linejoin="round"/>
<path d="M115.834 314.927V302.074L104.414 295.481V308.668L115.834 315.261V314.927Z" fill="#006B62" stroke="#000E33" stroke-linecap="round" stroke-linejoin="round"/>
<path d="M115.834 314.927V302.074L127.254 295.481V308.668L115.834 315.261V314.927Z" fill="#00D1C0" stroke="#000E33" stroke-linecap="round" stroke-linejoin="round"/>
<path d="M170.71 308.667V295.481L159.29 288.888L147.87 295.481V308.668L159.29 315.261L170.71 308.667Z" fill="#00EBD7" stroke="#000E33" stroke-linecap="round" stroke-linejoin="round"/>
<path d="M159.29 314.927V302.074L147.87 295.481V308.668L159.29 315.261V314.927Z" fill="#006B62" stroke="#000E33" stroke-linecap="round" stroke-linejoin="round"/>
<path d="M159.29 314.927V302.074L170.71 295.481V308.668L159.29 315.261V314.927Z" fill="#00D1C0" stroke="#000E33" stroke-linecap="round" stroke-linejoin="round"/>
<path d="M311.124 308.667V295.481L299.704 288.888L288.284 295.481V308.668L299.704 315.261L311.124 308.667Z" fill="#00EBD7" stroke="#000E33" stroke-linecap="round" stroke-linejoin="round"/>
<path d="M299.705 314.927V302.074L288.285 295.481V308.668L299.705 315.261V314.927Z" fill="#006B62" stroke="#000E33" stroke-linecap="round" stroke-linejoin="round"/>
<path d="M299.705 314.927V302.074L311.125 295.481V308.668L299.705 315.261V314.927Z" fill="#00D1C0" stroke="#000E33" stroke-linecap="round" stroke-linejoin="round"/>
<path d="M354.581 308.667V295.481L343.161 288.888L331.741 295.481V308.668L343.161 315.261L354.581 308.667Z" fill="#00EBD7" stroke="#000E33" stroke-linecap="round" stroke-linejoin="round"/>
<path d="M343.162 314.927V302.074L331.742 295.481V308.668L343.162 315.261V314.927Z" fill="#006B62" stroke="#000E33" stroke-linecap="round" stroke-linejoin="round"/>
<path d="M343.162 314.927V302.074L354.582 295.481V308.668L343.162 315.261V314.927Z" fill="#00D1C0" stroke="#000E33" stroke-linecap="round" stroke-linejoin="round"/>
<path d="M398.038 308.667V295.481L386.618 288.888L375.198 295.481V308.668L386.618 315.261L398.038 308.667Z" fill="#00EBD7" stroke="#000E33" stroke-linecap="round" stroke-linejoin="round"/>
<path d="M386.618 314.927V302.074L375.198 295.481V308.668L386.618 315.261V314.927Z" fill="#006B62" stroke="#000E33" stroke-linecap="round" stroke-linejoin="round"/>
<path d="M386.618 314.927V302.074L398.038 295.481V308.668L386.618 315.261V314.927Z" fill="#00D1C0" stroke="#000E33" stroke-linecap="round" stroke-linejoin="round"/>
<path d="M56.54 224.566C56.54 225.126 56.405 225.651 56.135 226.141C55.875 226.631 55.46 227.026 54.89 227.326C54.33 227.626 53.62 227.776 52.76 227.776H51.005V231.796H48.905V221.326H52.76C53.57 221.326 54.26 221.466 54.83 221.746C55.4 222.026 55.825 222.411 56.105 222.901C56.395 223.391 56.54 223.946 56.54 224.566ZM52.67 226.081C53.25 226.081 53.68 225.951 53.96 225.691C54.24 225.421 54.38 225.046 54.38 224.566C54.38 223.546 53.81 223.036 52.67 223.036H51.005V226.081H52.67ZM60.131 224.776C60.401 224.336 60.751 223.991 61.181 223.741C61.621 223.491 62.121 223.366 62.681 223.366V225.571H62.126C61.466 225.571 60.966 225.726 60.626 226.036C60.296 226.346 60.131 226.886 60.131 227.656V231.796H58.031V223.486H60.131V224.776ZM67.7854 231.931C66.9854 231.931 66.2654 231.756 65.6254 231.406C64.9854 231.046 64.4804 230.541 64.1104 229.891C63.7504 229.241 63.5704 228.491 63.5704 227.641C63.5704 226.791 63.7554 226.041 64.1254 225.391C64.5054 224.741 65.0204 224.241 65.6704 223.891C66.3204 223.531 67.0454 223.351 67.8454 223.351C68.6454 223.351 69.3704 223.531 70.0204 223.891C70.6704 224.241 71.1804 224.741 71.5504 225.391C71.9304 226.041 72.1204 226.791 72.1204 227.641C72.1204 228.491 71.9254 229.241 71.5354 229.891C71.1554 230.541 70.6354 231.046 69.9754 231.406C69.3254 231.756 68.5954 231.931 67.7854 231.931ZM67.7854 230.101C68.1654 230.101 68.5204 230.011 68.8504 229.831C69.1904 229.641 69.4604 229.361 69.6604 228.991C69.8604 228.621 69.9604 228.171 69.9604 227.641C69.9604 226.851 69.7504 226.246 69.3304 225.826C68.9204 225.396 68.4154 225.181 67.8154 225.181C67.2154 225.181 66.7104 225.396 66.3004 225.826C65.9004 226.246 65.7004 226.851 65.7004 227.641C65.7004 228.431 65.8954 229.041 66.2854 229.471C66.6854 229.891 67.1854 230.101 67.7854 230.101ZM73.1209 227.611C73.1209 226.771 73.2859 226.026 73.6159 225.376C73.9559 224.726 74.4159 224.226 74.9959 223.876C75.5759 223.526 76.2209 223.351 76.9309 223.351C77.4709 223.351 77.9859 223.471 78.4759 223.711C78.9659 223.941 79.3559 224.251 79.6459 224.641V220.696H81.7759V231.796H79.6459V230.566C79.3859 230.976 79.0209 231.306 78.5509 231.556C78.0809 231.806 77.5359 231.931 76.9159 231.931C76.2159 231.931 75.5759 231.751 74.9959 231.391C74.4159 231.031 73.9559 230.526 73.6159 229.876C73.2859 229.216 73.1209 228.461 73.1209 227.611ZM79.6609 227.641C79.6609 227.131 79.5609 226.696 79.3609 226.336C79.1609 225.966 78.8909 225.686 78.5509 225.496C78.2109 225.296 77.8459 225.196 77.4559 225.196C77.0659 225.196 76.7059 225.291 76.3759 225.481C76.0459 225.671 75.7759 225.951 75.5659 226.321C75.3659 226.681 75.2659 227.111 75.2659 227.611C75.2659 228.111 75.3659 228.551 75.5659 228.931C75.7759 229.301 76.0459 229.586 76.3759 229.786C76.7159 229.986 77.0759 230.086 77.4559 230.086C77.8459 230.086 78.2109 229.991 78.5509 229.801C78.8909 229.601 79.1609 229.321 79.3609 228.961C79.5609 228.591 79.6609 228.151 79.6609 227.641ZM91.6719 223.486V231.796H89.5569V230.746C89.2869 231.106 88.9319 231.391 88.4919 231.601C88.0619 231.801 87.5919 231.901 87.0819 231.901C86.4319 231.901 85.8569 231.766 85.3569 231.496C84.8569 231.216 84.4619 230.811 84.1719 230.281C83.8919 229.741 83.7519 229.101 83.7519 228.361V223.486H85.8519V228.061C85.8519 228.721 86.0169 229.231 86.3469 229.591C86.6769 229.941 87.1269 230.116 87.6969 230.116C88.2769 230.116 88.7319 229.941 89.0619 229.591C89.3919 229.231 89.5569 228.721 89.5569 228.061V223.486H91.6719ZM93.2039 227.641C93.2039 226.781 93.3789 226.031 93.7289 225.391C94.0789 224.741 94.5639 224.241 95.1839 223.891C95.8039 223.531 96.5139 223.351 97.3139 223.351C98.3439 223.351 99.1939 223.611 99.8639 224.131C100.544 224.641 100.999 225.361 101.229 226.291H98.9639C98.8439 225.931 98.6389 225.651 98.3489 225.451C98.0689 225.241 97.7189 225.136 97.2989 225.136C96.6989 225.136 96.2239 225.356 95.8739 225.796C95.5239 226.226 95.3489 226.841 95.3489 227.641C95.3489 228.431 95.5239 229.046 95.8739 229.486C96.2239 229.916 96.6989 230.131 97.2989 230.131C98.1489 230.131 98.7039 229.751 98.9639 228.991H101.229C100.999 229.891 100.544 230.606 99.8639 231.136C99.1839 231.666 98.3339 231.931 97.3139 231.931C96.5139 231.931 95.8039 231.756 95.1839 231.406C94.5639 231.046 94.0789 230.546 93.7289 229.906C93.3789 229.256 93.2039 228.501 93.2039 227.641ZM105.212 225.211V229.231C105.212 229.511 105.277 229.716 105.407 229.846C105.547 229.966 105.777 230.026 106.097 230.026H107.072V231.796H105.752C103.982 231.796 103.097 230.936 103.097 229.216V225.211H102.107V223.486H103.097V221.431H105.212V223.486H107.072V225.211H105.212Z" fill="white"/>
<path d="M488.99 203.569H38.863C34.2095 203.569 30.437 207.342 30.437 211.995V341.058C30.437 345.712 34.2095 349.484 38.863 349.484H488.99C493.644 349.484 497.416 345.712 497.416 341.058V211.995C497.416 207.342 493.644 203.569 488.99 203.569Z" stroke="#00D0BF" stroke-width="2" stroke-miterlimit="10"/>
<path d="M211.096 201.314H222.696L212.356 205.446L202.015 209.578L211.096 201.314Z" fill="#000E33"/>
<path d="M309.124 199.621L329.285 206.77L323.418 208.87L306.33 201.316L309.124 199.621Z" fill="#000E33"/>
<path d="M55.54 45.2142C55.54 45.7742 55.405 46.2992 55.135 46.7892C54.875 47.2792 54.46 47.6742 53.89 47.9742C53.33 48.2742 52.62 48.4242 51.76 48.4242H50.005V52.4442H47.905V41.9742H51.76C52.57 41.9742 53.26 42.1142 53.83 42.3942C54.4 42.6742 54.825 43.0592 55.105 43.5492C55.395 44.0392 55.54 44.5942 55.54 45.2142ZM51.67 46.7292C52.25 46.7292 52.68 46.5992 52.96 46.3392C53.24 46.0692 53.38 45.6942 53.38 45.2142C53.38 44.1942 52.81 43.6842 51.67 43.6842H50.005V46.7292H51.67ZM59.131 45.4242C59.401 44.9842 59.751 44.6392 60.181 44.3892C60.621 44.1392 61.121 44.0142 61.681 44.0142V46.2192H61.126C60.466 46.2192 59.966 46.3742 59.626 46.6842C59.296 46.9942 59.131 47.5342 59.131 48.3042V52.4442H57.031V44.1342H59.131V45.4242ZM66.7854 52.5792C65.9854 52.5792 65.2654 52.4042 64.6254 52.0542C63.9854 51.6942 63.4804 51.1892 63.1104 50.5392C62.7504 49.8892 62.5704 49.1392 62.5704 48.2892C62.5704 47.4392 62.7554 46.6892 63.1254 46.0392C63.5054 45.3892 64.0204 44.8892 64.6704 44.5392C65.3204 44.1792 66.0454 43.9992 66.8454 43.9992C67.6454 43.9992 68.3704 44.1792 69.0204 44.5392C69.6704 44.8892 70.1804 45.3892 70.5504 46.0392C70.9304 46.6892 71.1204 47.4392 71.1204 48.2892C71.1204 49.1392 70.9254 49.8892 70.5354 50.5392C70.1554 51.1892 69.6354 51.6942 68.9754 52.0542C68.3254 52.4042 67.5954 52.5792 66.7854 52.5792ZM66.7854 50.7492C67.1654 50.7492 67.5204 50.6592 67.8504 50.4792C68.1904 50.2892 68.4604 50.0092 68.6604 49.6392C68.8604 49.2692 68.9604 48.8192 68.9604 48.2892C68.9604 47.4992 68.7504 46.8942 68.3304 46.4742C67.9204 46.0442 67.4154 45.8292 66.8154 45.8292C66.2154 45.8292 65.7104 46.0442 65.3004 46.4742C64.9004 46.8942 64.7004 47.4992 64.7004 48.2892C64.7004 49.0792 64.8954 49.6892 65.2854 50.1192C65.6854 50.5392 66.1854 50.7492 66.7854 50.7492ZM73.7259 43.1442C73.3459 43.1442 73.0309 43.0292 72.7809 42.7992C72.5409 42.5592 72.4209 42.2642 72.4209 41.9142C72.4209 41.5642 72.5409 41.2742 72.7809 41.0442C73.0309 40.8042 73.3459 40.6842 73.7259 40.6842C74.0959 40.6842 74.4009 40.8042 74.6409 41.0442C74.8809 41.2742 75.0009 41.5642 75.0009 41.9142C75.0009 42.2642 74.8809 42.5592 74.6409 42.7992C74.4009 43.0292 74.0959 43.1442 73.7259 43.1442ZM74.7609 53.8092C74.7609 54.7292 74.5309 55.3892 74.0709 55.7892C73.6209 56.1992 72.9709 56.4042 72.1209 56.4042H71.1909V54.6192H71.7909C72.1109 54.6192 72.3359 54.5542 72.4659 54.4242C72.5959 54.3042 72.6609 54.1042 72.6609 53.8242V44.1342H74.7609V53.8092ZM84.5607 48.1092C84.5607 48.4092 84.5407 48.6792 84.5007 48.9192H78.4257C78.4757 49.5192 78.6857 49.9892 79.0557 50.3292C79.4257 50.6692 79.8807 50.8392 80.4207 50.8392C81.2007 50.8392 81.7557 50.5042 82.0857 49.8342H84.3507C84.1107 50.6342 83.6507 51.2942 82.9707 51.8142C82.2907 52.3242 81.4557 52.5792 80.4657 52.5792C79.6657 52.5792 78.9457 52.4042 78.3057 52.0542C77.6757 51.6942 77.1807 51.1892 76.8207 50.5392C76.4707 49.8892 76.2957 49.1392 76.2957 48.2892C76.2957 47.4292 76.4707 46.6742 76.8207 46.0242C77.1707 45.3742 77.6607 44.8742 78.2907 44.5242C78.9207 44.1742 79.6457 43.9992 80.4657 43.9992C81.2557 43.9992 81.9607 44.1692 82.5807 44.5092C83.2107 44.8492 83.6957 45.3342 84.0357 45.9642C84.3857 46.5842 84.5607 47.2992 84.5607 48.1092ZM82.3857 47.5092C82.3757 46.9692 82.1807 46.5392 81.8007 46.2192C81.4207 45.8892 80.9557 45.7242 80.4057 45.7242C79.8857 45.7242 79.4457 45.8842 79.0857 46.2042C78.7357 46.5142 78.5207 46.9492 78.4407 47.5092H82.3857ZM85.5535 48.2892C85.5535 47.4292 85.7285 46.6792 86.0785 46.0392C86.4285 45.3892 86.9135 44.8892 87.5335 44.5392C88.1535 44.1792 88.8635 43.9992 89.6635 43.9992C90.6935 43.9992 91.5435 44.2592 92.2135 44.7792C92.8935 45.2892 93.3485 46.0092 93.5785 46.9392H91.3135C91.1935 46.5792 90.9885 46.2992 90.6985 46.0992C90.4185 45.8892 90.0685 45.7842 89.6485 45.7842C89.0485 45.7842 88.5735 46.0042 88.2235 46.4442C87.8735 46.8742 87.6985 47.4892 87.6985 48.2892C87.6985 49.0792 87.8735 49.6942 88.2235 50.1342C88.5735 50.5642 89.0485 50.7792 89.6485 50.7792C90.4985 50.7792 91.0535 50.3992 91.3135 49.6392H93.5785C93.3485 50.5392 92.8935 51.2542 92.2135 51.7842C91.5335 52.3142 90.6835 52.5792 89.6635 52.5792C88.8635 52.5792 88.1535 52.4042 87.5335 52.0542C86.9135 51.6942 86.4285 51.1942 86.0785 50.5542C85.7285 49.9042 85.5535 49.1492 85.5535 48.2892ZM97.5619 45.8592V49.8792C97.5619 50.1592 97.6269 50.3642 97.7569 50.4942C97.8969 50.6142 98.1269 50.6742 98.4469 50.6742H99.4219V52.4442H98.1019C96.3319 52.4442 95.4469 51.5842 95.4469 49.8642V45.8592H94.4569V44.1342H95.4469V42.0792H97.5619V44.1342H99.4219V45.8592H97.5619Z" fill="white"/>
<path d="M171.884 26.5142H38.863C34.2095 26.5142 30.437 30.2866 30.437 34.9402V173.322C30.437 177.976 34.2095 181.748 38.863 181.748H171.884C176.538 181.748 180.31 177.976 180.31 173.322V34.9402C180.31 30.2866 176.538 26.5142 171.884 26.5142Z" stroke="#00D0BF" stroke-width="2" stroke-miterlimit="10"/>
<path d="M488.99 26.5142H209.161C204.507 26.5142 200.735 30.2866 200.735 34.9402V173.322C200.735 177.976 204.507 181.748 209.161 181.748H488.99C493.644 181.748 497.416 177.976 497.416 173.322V34.9402C497.416 30.2866 493.644 26.5142 488.99 26.5142Z" stroke="#00D0BF" stroke-width="2" stroke-miterlimit="10" stroke-dasharray="6 6"/>
<path d="M246.692 250.612H56.297C51.6435 250.612 47.871 254.385 47.871 259.038V324.697C47.871 329.351 51.6435 333.123 56.297 333.123H246.692C251.346 333.123 255.118 329.351 255.118 324.697V259.038C255.118 254.385 251.346 250.612 246.692 250.612Z" stroke="#00D0BF" stroke-width="2" stroke-miterlimit="10"/>
<path d="M293.902 263.866L290.062 274.336H287.512L283.672 263.866H285.922L288.802 272.191L291.667 263.866H293.902ZM302.886 270.001C302.886 270.301 302.866 270.571 302.826 270.811H296.751C296.801 271.411 297.011 271.881 297.381 272.221C297.751 272.561 298.206 272.731 298.746 272.731C299.526 272.731 300.081 272.396 300.411 271.726H302.676C302.436 272.526 301.976 273.186 301.296 273.706C300.616 274.216 299.781 274.471 298.791 274.471C297.991 274.471 297.271 274.296 296.631 273.946C296.001 273.586 295.506 273.081 295.146 272.431C294.796 271.781 294.621 271.031 294.621 270.181C294.621 269.321 294.796 268.566 295.146 267.916C295.496 267.266 295.986 266.766 296.616 266.416C297.246 266.066 297.971 265.891 298.791 265.891C299.581 265.891 300.286 266.061 300.906 266.401C301.536 266.741 302.021 267.226 302.361 267.856C302.711 268.476 302.886 269.191 302.886 270.001ZM300.711 269.401C300.701 268.861 300.506 268.431 300.126 268.111C299.746 267.781 299.281 267.616 298.731 267.616C298.211 267.616 297.771 267.776 297.411 268.096C297.061 268.406 296.846 268.841 296.766 269.401H300.711ZM306.519 267.316C306.789 266.876 307.139 266.531 307.569 266.281C308.009 266.031 308.509 265.906 309.069 265.906V268.111H308.514C307.854 268.111 307.354 268.266 307.014 268.576C306.684 268.886 306.519 269.426 306.519 270.196V274.336H304.419V266.026H306.519V267.316ZM313.663 274.471C312.983 274.471 312.373 274.351 311.833 274.111C311.293 273.861 310.863 273.526 310.543 273.106C310.233 272.686 310.063 272.221 310.033 271.711H312.148C312.188 272.031 312.343 272.296 312.613 272.506C312.893 272.716 313.238 272.821 313.648 272.821C314.048 272.821 314.358 272.741 314.578 272.581C314.808 272.421 314.923 272.216 314.923 271.966C314.923 271.696 314.783 271.496 314.503 271.366C314.233 271.226 313.798 271.076 313.198 270.916C312.578 270.766 312.068 270.611 311.668 270.451C311.278 270.291 310.938 270.046 310.648 269.716C310.368 269.386 310.228 268.941 310.228 268.381C310.228 267.921 310.358 267.501 310.618 267.121C310.888 266.741 311.268 266.441 311.758 266.221C312.258 266.001 312.843 265.891 313.513 265.891C314.503 265.891 315.293 266.141 315.883 266.641C316.473 267.131 316.798 267.796 316.858 268.636H314.848C314.818 268.306 314.678 268.046 314.428 267.856C314.188 267.656 313.863 267.556 313.453 267.556C313.073 267.556 312.778 267.626 312.568 267.766C312.368 267.906 312.268 268.101 312.268 268.351C312.268 268.631 312.408 268.846 312.688 268.996C312.968 269.136 313.403 269.281 313.993 269.431C314.593 269.581 315.088 269.736 315.478 269.896C315.868 270.056 316.203 270.306 316.483 270.646C316.773 270.976 316.923 271.416 316.933 271.966C316.933 272.446 316.798 272.876 316.528 273.256C316.268 273.636 315.888 273.936 315.388 274.156C314.898 274.366 314.323 274.471 313.663 274.471ZM319.722 265.036C319.352 265.036 319.042 264.921 318.792 264.691C318.552 264.451 318.432 264.156 318.432 263.806C318.432 263.456 318.552 263.166 318.792 262.936C319.042 262.696 319.352 262.576 319.722 262.576C320.092 262.576 320.397 262.696 320.637 262.936C320.887 263.166 321.012 263.456 321.012 263.806C321.012 264.156 320.887 264.451 320.637 264.691C320.397 264.921 320.092 265.036 319.722 265.036ZM320.757 266.026V274.336H318.657V266.026H320.757ZM326.522 274.471C325.722 274.471 325.002 274.296 324.362 273.946C323.722 273.586 323.217 273.081 322.847 272.431C322.487 271.781 322.307 271.031 322.307 270.181C322.307 269.331 322.492 268.581 322.862 267.931C323.242 267.281 323.757 266.781 324.407 266.431C325.057 266.071 325.782 265.891 326.582 265.891C327.382 265.891 328.107 266.071 328.757 266.431C329.407 266.781 329.917 267.281 330.287 267.931C330.667 268.581 330.857 269.331 330.857 270.181C330.857 271.031 330.662 271.781 330.272 272.431C329.892 273.081 329.372 273.586 328.712 273.946C328.062 274.296 327.332 274.471 326.522 274.471ZM326.522 272.641C326.902 272.641 327.257 272.551 327.587 272.371C327.927 272.181 328.197 271.901 328.397 271.531C328.597 271.161 328.697 270.711 328.697 270.181C328.697 269.391 328.487 268.786 328.067 268.366C327.657 267.936 327.152 267.721 326.552 267.721C325.952 267.721 325.447 267.936 325.037 268.366C324.637 268.786 324.437 269.391 324.437 270.181C324.437 270.971 324.632 271.581 325.022 272.011C325.422 272.431 325.922 272.641 326.522 272.641ZM337.002 265.906C337.992 265.906 338.792 266.221 339.402 266.851C340.012 267.471 340.317 268.341 340.317 269.461V274.336H338.217V269.746C338.217 269.086 338.052 268.581 337.722 268.231C337.392 267.871 336.942 267.691 336.372 267.691C335.792 267.691 335.332 267.871 334.992 268.231C334.662 268.581 334.497 269.086 334.497 269.746V274.336H332.397V266.026H334.497V267.061C334.777 266.701 335.132 266.421 335.562 266.221C336.002 266.011 336.482 265.906 337.002 265.906ZM345.394 265.336V263.401H349.009V274.336H346.849V265.336H345.394ZM352.253 274.441C351.873 274.441 351.558 274.326 351.308 274.096C351.068 273.856 350.948 273.561 350.948 273.211C350.948 272.861 351.068 272.571 351.308 272.341C351.558 272.101 351.873 271.981 352.253 271.981C352.623 271.981 352.928 272.101 353.168 272.341C353.408 272.571 353.528 272.861 353.528 273.211C353.528 273.561 353.408 273.856 353.168 274.096C352.928 274.326 352.623 274.441 352.253 274.441ZM354.98 268.726C354.98 266.996 355.29 265.641 355.91 264.661C356.54 263.681 357.58 263.191 359.03 263.191C360.48 263.191 361.515 263.681 362.135 264.661C362.765 265.641 363.08 266.996 363.08 268.726C363.08 270.466 362.765 271.831 362.135 272.821C361.515 273.811 360.48 274.306 359.03 274.306C357.58 274.306 356.54 273.811 355.91 272.821C355.29 271.831 354.98 270.466 354.98 268.726ZM361.01 268.726C361.01 267.986 360.96 267.366 360.86 266.866C360.77 266.356 360.58 265.941 360.29 265.621C360.01 265.301 359.59 265.141 359.03 265.141C358.47 265.141 358.045 265.301 357.755 265.621C357.475 265.941 357.285 266.356 357.185 266.866C357.095 267.366 357.05 267.986 357.05 268.726C357.05 269.486 357.095 270.126 357.185 270.646C357.275 271.156 357.465 271.571 357.755 271.891C358.045 272.201 358.47 272.356 359.03 272.356C359.59 272.356 360.015 272.201 360.305 271.891C360.595 271.571 360.785 271.156 360.875 270.646C360.965 270.126 361.01 269.486 361.01 268.726ZM365.847 274.441C365.467 274.441 365.152 274.326 364.902 274.096C364.662 273.856 364.542 273.561 364.542 273.211C364.542 272.861 364.662 272.571 364.902 272.341C365.152 272.101 365.467 271.981 365.847 271.981C366.217 271.981 366.522 272.101 366.762 272.341C367.002 272.571 367.122 272.861 367.122 273.211C367.122 273.561 367.002 273.856 366.762 274.096C366.522 274.326 366.217 274.441 365.847 274.441ZM368.483 272.206V270.556L373.388 263.536H375.833V270.376H377.153V272.206H375.833V274.336H373.733V272.206H368.483ZM373.868 265.786L370.793 270.376H373.868V265.786Z" fill="white"/>
<path d="M470.916 250.612H280.521C275.867 250.612 272.095 254.385 272.095 259.038V324.697C272.095 329.351 275.867 333.123 280.521 333.123H470.916C475.57 333.123 479.342 329.351 479.342 324.697V259.038C479.342 254.385 475.57 250.612 470.916 250.612Z" stroke="#00D0BF" stroke-width="2" stroke-miterlimit="10"/>
<path d="M111.664 66.4312H46.375V70.8422H111.664V66.4312Z" fill="#00D0BF"/>
<path d="M111.664 95.5862H46.375V99.9972H111.664V95.5862Z" fill="#00D0BF"/>
<path d="M147.436 66.4312H118.616V70.8422H147.436V66.4312Z" fill="#00D0BF"/>
<path d="M77.589 85.4192L147.436 85.4192V81.0082L77.589 81.0082V85.4192Z" fill="#00D0BF"/>
<path d="M46.374 85.4192H70.636V81.0082H46.374V85.4192Z" fill="#00D0BF"/>
<path d="M381.308 237.386L376.708 241.986C376.446 220.766 354.499 214.992 331.262 208.886C305.003 201.986 277.85 194.853 277.85 165.169C277.85 164.904 277.745 164.65 277.557 164.462C277.37 164.275 277.115 164.169 276.85 164.169C276.585 164.169 276.33 164.275 276.143 164.462C275.955 164.65 275.85 164.904 275.85 165.169C275.85 196.396 305.018 204.059 330.75 210.82C353.205 216.72 374.413 222.301 374.703 241.959L370.128 237.384L368.714 238.798L375.714 245.798L382.714 238.798L381.308 237.386Z" fill="url(#paint0_linear_490_5467)"/>
<path d="M235.824 165.171C235.824 194.885 211.415 202.271 187.809 209.411C167.509 215.553 148.302 221.371 146.953 241.057L142.281 236.386L140.867 237.8L144.112 241.044L147.836 244.884L151.401 241.272L154.874 237.8L153.46 236.386L148.983 240.862C150.497 222.802 168.919 217.215 188.383 211.325C211.555 204.315 237.819 196.369 237.819 165.171H235.824Z" fill="url(#paint1_linear_490_5467)"/>
<path d="M269.917 102.803L256.774 95.2142L256.887 95.1492V72.8322L237.558 61.6722L218.229 72.8322V95.1492L231.372 102.738L231.259 102.803V125.12L231.301 125.144L218.23 132.696V155.016L237.559 166.174L256.888 155.016V132.696L256.847 132.672L269.919 125.125L269.917 102.803Z" fill="#006B62"/>
<path d="M308.789 102.803L295.646 95.2142L295.759 95.1492V72.8322L276.43 61.6722L257.101 72.8322V95.1492L270.244 102.738L270.131 102.803V125.12L270.173 125.144L257.102 132.696V155.016L276.431 166.174L295.76 155.016V132.696L295.719 132.672L308.791 125.125L308.789 102.803Z" fill="#73EFE0"/>
<path d="M247.387 89.6652V78.3162L237.558 72.6412L227.729 78.3162V89.6652L237.558 95.3402L247.387 89.6652Z" fill="#00EBD7" stroke="#000E33" stroke-linecap="round" stroke-linejoin="round"/>
<path d="M237.558 95.0522V83.9902L227.729 78.3152V89.6642L237.558 95.3392V95.0522Z" fill="#006B62" stroke="#000E33" stroke-linecap="round" stroke-linejoin="round"/>
<path d="M237.558 95.0522V83.9902L247.387 78.3152V89.6642L237.558 95.3392V95.0522Z" fill="#00D1C0" stroke="#000E33" stroke-linecap="round" stroke-linejoin="round"/>
<path d="M247.387 149.527V138.178L237.558 132.503L227.729 138.178V149.527L237.558 155.202L247.387 149.527Z" fill="#00EBD7" stroke="#000E33" stroke-linecap="round" stroke-linejoin="round"/>
<path d="M237.558 154.914V143.852L227.729 138.177V149.526L237.558 155.201V154.914Z" fill="#006B62" stroke="#000E33" stroke-linecap="round" stroke-linejoin="round"/>
<path d="M237.558 154.914V143.852L247.387 138.177V149.526L237.558 155.201V154.914Z" fill="#00D1C0" stroke="#000E33" stroke-linecap="round" stroke-linejoin="round"/>
<path d="M260.417 119.637V108.288L250.588 102.613L240.759 108.288V119.637L250.588 125.312L260.417 119.637Z" fill="#00EBD7" stroke="#000E33" stroke-linecap="round" stroke-linejoin="round"/>
<path d="M250.588 125.025V113.962L240.759 108.287V119.636L250.588 125.311V125.025Z" fill="#006B62" stroke="#000E33" stroke-linecap="round" stroke-linejoin="round"/>
<path d="M250.588 125.025V113.962L260.417 108.287V119.636L250.588 125.311V125.025Z" fill="#00D1C0" stroke="#000E33" stroke-linecap="round" stroke-linejoin="round"/>
<path d="M222.257 47.0742C222.847 47.1842 223.332 47.4792 223.712 47.9592C224.092 48.4392 224.282 48.9892 224.282 49.6092C224.282 50.1692 224.142 50.6642 223.862 51.0942C223.592 51.5142 223.197 51.8442 222.677 52.0842C222.157 52.3242 221.542 52.4442 220.832 52.4442H216.317V41.9742H220.637C221.347 41.9742 221.957 42.0892 222.467 42.3192C222.987 42.5492 223.377 42.8692 223.637 43.2792C223.907 43.6892 224.042 44.1542 224.042 44.6742C224.042 45.2842 223.877 45.7942 223.547 46.2042C223.227 46.6142 222.797 46.9042 222.257 47.0742ZM218.417 46.2942H220.337C220.837 46.2942 221.222 46.1842 221.492 45.9642C221.762 45.7342 221.897 45.4092 221.897 44.9892C221.897 44.5692 221.762 44.2442 221.492 44.0142C221.222 43.7842 220.837 43.6692 220.337 43.6692H218.417V46.2942ZM220.532 50.7342C221.042 50.7342 221.437 50.6142 221.717 50.3742C222.007 50.1342 222.152 49.7942 222.152 49.3542C222.152 48.9042 222.002 48.5542 221.702 48.3042C221.402 48.0442 220.997 47.9142 220.487 47.9142H218.417V50.7342H220.532ZM233.801 44.1342V52.4442H231.686V51.3942C231.416 51.7542 231.061 52.0392 230.621 52.2492C230.191 52.4492 229.721 52.5492 229.211 52.5492C228.561 52.5492 227.986 52.4142 227.486 52.1442C226.986 51.8642 226.591 51.4592 226.301 50.9292C226.021 50.3892 225.881 49.7492 225.881 49.0092V44.1342H227.981V48.7092C227.981 49.3692 228.146 49.8792 228.476 50.2392C228.806 50.5892 229.256 50.7642 229.826 50.7642C230.406 50.7642 230.861 50.5892 231.191 50.2392C231.521 49.8792 231.686 49.3692 231.686 48.7092V44.1342H233.801ZM236.938 43.1442C236.568 43.1442 236.258 43.0292 236.008 42.7992C235.768 42.5592 235.648 42.2642 235.648 41.9142C235.648 41.5642 235.768 41.2742 236.008 41.0442C236.258 40.8042 236.568 40.6842 236.938 40.6842C237.308 40.6842 237.613 40.8042 237.853 41.0442C238.103 41.2742 238.228 41.5642 238.228 41.9142C238.228 42.2642 238.103 42.5592 237.853 42.7992C237.613 43.0292 237.308 43.1442 236.938 43.1442ZM237.973 44.1342V52.4442H235.873V44.1342H237.973ZM242.148 41.3442V52.4442H240.048V41.3442H242.148ZM243.682 48.2592C243.682 47.4192 243.847 46.6742 244.177 46.0242C244.517 45.3742 244.977 44.8742 245.557 44.5242C246.137 44.1742 246.782 43.9992 247.492 43.9992C248.032 43.9992 248.547 44.1192 249.037 44.3592C249.527 44.5892 249.917 44.8992 250.207 45.2892V41.3442H252.337V52.4442H250.207V51.2142C249.947 51.6242 249.582 51.9542 249.112 52.2042C248.642 52.4542 248.097 52.5792 247.477 52.5792C246.777 52.5792 246.137 52.3992 245.557 52.0392C244.977 51.6792 244.517 51.1742 244.177 50.5242C243.847 49.8642 243.682 49.1092 243.682 48.2592ZM250.222 48.2892C250.222 47.7792 250.122 47.3442 249.922 46.9842C249.722 46.6142 249.452 46.3342 249.112 46.1442C248.772 45.9442 248.407 45.8442 248.017 45.8442C247.627 45.8442 247.267 45.9392 246.937 46.1292C246.607 46.3192 246.337 46.5992 246.127 46.9692C245.927 47.3292 245.827 47.7592 245.827 48.2592C245.827 48.7592 245.927 49.1992 246.127 49.5792C246.337 49.9492 246.607 50.2342 246.937 50.4342C247.277 50.6342 247.637 50.7342 248.017 50.7342C248.407 50.7342 248.772 50.6392 249.112 50.4492C249.452 50.2492 249.722 49.9692 249.922 49.6092C250.122 49.2392 250.222 48.7992 250.222 48.2892ZM257.568 52.5792C256.888 52.5792 256.278 52.4592 255.738 52.2192C255.198 51.9692 254.768 51.6342 254.448 51.2142C254.138 50.7942 253.968 50.3292 253.938 49.8192H256.053C256.093 50.1392 256.248 50.4042 256.518 50.6142C256.798 50.8242 257.143 50.9292 257.553 50.9292C257.953 50.9292 258.263 50.8492 258.483 50.6892C258.713 50.5292 258.828 50.3242 258.828 50.0742C258.828 49.8042 258.688 49.6042 258.408 49.4742C258.138 49.3342 257.703 49.1842 257.103 49.0242C256.483 48.8742 255.973 48.7192 255.573 48.5592C255.183 48.3992 254.843 48.1542 254.553 47.8242C254.273 47.4942 254.133 47.0492 254.133 46.4892C254.133 46.0292 254.263 45.6092 254.523 45.2292C254.793 44.8492 255.173 44.5492 255.663 44.3292C256.163 44.1092 256.748 43.9992 257.418 43.9992C258.408 43.9992 259.198 44.2492 259.788 44.7492C260.378 45.2392 260.703 45.9042 260.763 46.7442H258.753C258.723 46.4142 258.583 46.1542 258.333 45.9642C258.093 45.7642 257.768 45.6642 257.358 45.6642C256.978 45.6642 256.683 45.7342 256.473 45.8742C256.273 46.0142 256.173 46.2092 256.173 46.4592C256.173 46.7392 256.313 46.9542 256.593 47.1042C256.873 47.2442 257.308 47.3892 257.898 47.5392C258.498 47.6892 258.993 47.8442 259.383 48.0042C259.773 48.1642 260.108 48.4142 260.388 48.7542C260.678 49.0842 260.828 49.5242 260.838 50.0742C260.838 50.5542 260.703 50.9842 260.433 51.3642C260.173 51.7442 259.793 52.0442 259.293 52.2642C258.803 52.4742 258.228 52.5792 257.568 52.5792Z" fill="white"/>
<path d="M325.132 89.6652V78.3162L315.303 72.6412L305.474 78.3162V89.6652L315.303 95.3402L325.132 89.6652Z" fill="#00EBD7" stroke="#000E33" stroke-linecap="round" stroke-linejoin="round"/>
<path d="M315.303 95.0522V83.9902L305.474 78.3152V89.6642L315.303 95.3392V95.0522Z" fill="#006B62" stroke="#000E33" stroke-linecap="round" stroke-linejoin="round"/>
<path d="M315.303 95.0522V83.9902L325.132 78.3152V89.6642L315.303 95.3392V95.0522Z" fill="#00D1C0" stroke="#000E33" stroke-linecap="round" stroke-linejoin="round"/>
<path d="M325.132 149.527V138.178L315.303 132.503L305.474 138.178V149.527L315.303 155.202L325.132 149.527Z" fill="#00EBD7" stroke="#000E33" stroke-linecap="round" stroke-linejoin="round"/>
<path d="M315.303 154.914V143.852L305.474 138.177V149.526L315.303 155.201V154.914Z" fill="#006B62" stroke="#000E33" stroke-linecap="round" stroke-linejoin="round"/>
<path d="M315.303 154.914V143.852L325.132 138.177V149.526L315.303 155.201V154.914Z" fill="#00D1C0" stroke="#000E33" stroke-linecap="round" stroke-linejoin="round"/>
<path d="M338.162 119.637V108.288L328.333 102.613L318.504 108.288V119.637L328.333 125.312L338.162 119.637Z" fill="#00EBD7" stroke="#000E33" stroke-linecap="round" stroke-linejoin="round"/>
<path d="M328.333 125.025V113.962L318.504 108.287V119.636L328.333 125.311V125.025Z" fill="#006B62" stroke="#000E33" stroke-linecap="round" stroke-linejoin="round"/>
<path d="M328.333 125.025V113.962L338.162 108.287V119.636L328.333 125.311V125.025Z" fill="#00D1C0" stroke="#000E33" stroke-linecap="round" stroke-linejoin="round"/>
<path d="M286.259 89.6652V78.3162L276.43 72.6412L266.601 78.3162V89.6652L276.43 95.3402L286.259 89.6652Z" fill="#00EBD7" stroke="#000E33" stroke-linecap="round" stroke-linejoin="round"/>
<path d="M276.431 95.0522V83.9902L266.602 78.3152V89.6642L276.431 95.3392V95.0522Z" fill="#006B62" stroke="#000E33" stroke-linecap="round" stroke-linejoin="round"/>
<path d="M276.431 95.0522V83.9902L286.26 78.3152V89.6642L276.431 95.3392V95.0522Z" fill="#00D1C0" stroke="#000E33" stroke-linecap="round" stroke-linejoin="round"/>
<path d="M286.259 149.527V138.178L276.43 132.503L266.601 138.178V149.527L276.43 155.202L286.259 149.527Z" fill="#00EBD7" stroke="#000E33" stroke-linecap="round" stroke-linejoin="round"/>
<path d="M276.431 154.914V143.852L266.602 138.177V149.526L276.431 155.201V154.914Z" fill="#006B62" stroke="#000E33" stroke-linecap="round" stroke-linejoin="round"/>
<path d="M276.431 154.914V143.852L286.26 138.177V149.526L276.431 155.201V154.914Z" fill="#00D1C0" stroke="#000E33" stroke-linecap="round" stroke-linejoin="round"/>
<path d="M299.289 119.637V108.288L289.46 102.613L279.631 108.288V119.637L289.46 125.312L299.289 119.637Z" fill="#00EBD7" stroke="#000E33" stroke-linecap="round" stroke-linejoin="round"/>
<path d="M289.461 125.025V113.962L279.632 108.287V119.636L289.461 125.311V125.025Z" fill="#006B62" stroke="#000E33" stroke-linecap="round" stroke-linejoin="round"/>
<path d="M289.461 125.025V113.962L299.29 108.287V119.636L289.461 125.311V125.025Z" fill="#00D1C0" stroke="#000E33" stroke-linecap="round" stroke-linejoin="round"/>
<path d="M364.004 89.6652V78.3162L354.175 72.6412L344.346 78.3162V89.6652L354.175 95.3402L364.004 89.6652Z" fill="#00EBD7" stroke="#000E33" stroke-linecap="round" stroke-linejoin="round"/>
<path d="M354.175 95.0522V83.9902L344.346 78.3152V89.6642L354.175 95.3392V95.0522Z" fill="#006B62" stroke="#000E33" stroke-linecap="round" stroke-linejoin="round"/>
<path d="M354.175 95.0522V83.9902L364.004 78.3152V89.6642L354.175 95.3392V95.0522Z" fill="#00D1C0" stroke="#000E33" stroke-linecap="round" stroke-linejoin="round"/>
<path d="M364.004 149.527V138.178L354.175 132.503L344.346 138.178V149.527L354.175 155.202L364.004 149.527Z" fill="#00EBD7" stroke="#000E33" stroke-linecap="round" stroke-linejoin="round"/>
<path d="M354.175 154.914V143.852L344.346 138.177V149.526L354.175 155.201V154.914Z" fill="#006B62" stroke="#000E33" stroke-linecap="round" stroke-linejoin="round"/>
<path d="M354.175 154.914V143.852L364.004 138.177V149.526L354.175 155.201V154.914Z" fill="#00D1C0" stroke="#000E33" stroke-linecap="round" stroke-linejoin="round"/>
<path d="M377.034 119.637V108.288L367.205 102.613L357.376 108.288V119.637L367.205 125.312L377.034 119.637Z" fill="#00EBD7" stroke="#000E33" stroke-linecap="round" stroke-linejoin="round"/>
<path d="M367.205 125.025V113.962L357.376 108.287V119.636L367.205 125.311V125.025Z" fill="#006B62" stroke="#000E33" stroke-linecap="round" stroke-linejoin="round"/>
<path d="M367.205 125.025V113.962L377.034 108.287V119.636L367.205 125.311V125.025Z" fill="#00D1C0" stroke="#000E33" stroke-linecap="round" stroke-linejoin="round"/>
<path d="M402.876 89.6652V78.3162L393.047 72.6412L383.224 78.3162V89.6652L393.053 95.3402L402.876 89.6652Z" fill="#00EBD7" stroke="#000E33" stroke-linecap="round" stroke-linejoin="round"/>
<path d="M393.048 95.0522V83.9902L383.224 78.3162V89.6652L393.053 95.3402L393.048 95.0522Z" fill="#006B62" stroke="#000E33" stroke-linecap="round" stroke-linejoin="round"/>
<path d="M393.048 95.0522V83.9902L402.877 78.3152V89.6642L393.048 95.3392V95.0522Z" fill="#00D1C0" stroke="#000E33" stroke-linecap="round" stroke-linejoin="round"/>
<path d="M402.876 149.527V138.178L393.047 132.503L383.224 138.178V149.527L393.053 155.202L402.876 149.527Z" fill="#00EBD7" stroke="#000E33" stroke-linecap="round" stroke-linejoin="round"/>
<path d="M393.048 154.914V143.852L383.224 138.178V149.527L393.053 155.202L393.048 154.914Z" fill="#006B62" stroke="#000E33" stroke-linecap="round" stroke-linejoin="round"/>
<path d="M393.048 154.914V143.852L402.877 138.177V149.526L393.048 155.201V154.914Z" fill="#00D1C0" stroke="#000E33" stroke-linecap="round" stroke-linejoin="round"/>
<path d="M415.906 119.637V108.288L406.077 102.613L396.248 108.288V119.637L406.077 125.312L415.906 119.637Z" fill="#00EBD7" stroke="#000E33" stroke-linecap="round" stroke-linejoin="round"/>
<path d="M406.078 125.025V113.962L396.249 108.287V119.636L406.078 125.311V125.025Z" fill="#006B62" stroke="#000E33" stroke-linecap="round" stroke-linejoin="round"/>
<path d="M406.078 125.025V113.962L415.907 108.287V119.636L406.078 125.311V125.025Z" fill="#00D1C0" stroke="#000E33" stroke-linecap="round" stroke-linejoin="round"/>
<defs>
<linearGradient id="paint0_linear_490_5467" x1="329.282" y1="245.798" x2="329.282" y2="164.169" gradientUnits="userSpaceOnUse">
<stop stop-color="#05B1A3"/>
<stop offset="1" stop-color="#73EFE0"/>
</linearGradient>
<linearGradient id="paint1_linear_490_5467" x1="140.867" y1="205.028" x2="237.819" y2="205.028" gradientUnits="userSpaceOnUse">
<stop stop-color="#00D0BF"/>
<stop offset="1" stop-color="#006B62"/>
</linearGradient>
</defs>
</svg>
