<svg width="531" height="378" viewBox="0 0 531 378" fill="none" xmlns="http://www.w3.org/2000/svg">
<path d="M510.706 1H20C9.50659 1 1 9.50659 1 20V357.227C1 367.72 9.50659 376.227 20 376.227H510.706C521.199 376.227 529.706 367.72 529.706 357.227V20C529.706 9.50659 521.199 1 510.706 1Z" stroke="#00EBD7" stroke-width="2"/>
<path d="M290.327 140.431C236.709 140.431 265.097 223.742 195.876 223.742" stroke="#00EBD7" stroke-width="2" stroke-miterlimit="10" stroke-dasharray="6 6"/>
<path d="M296.155 84.22C295.455 84.22 294.825 84.1 294.265 83.86C293.705 83.61 293.265 83.26 292.945 82.81C292.625 82.36 292.465 81.835 292.465 81.235H294.295C294.335 81.685 294.51 82.055 294.82 82.345C295.14 82.635 295.585 82.78 296.155 82.78C296.745 82.78 297.205 82.64 297.535 82.36C297.865 82.07 298.03 81.7 298.03 81.25C298.03 80.9 297.925 80.615 297.715 80.395C297.515 80.175 297.26 80.005 296.95 79.885C296.65 79.765 296.23 79.635 295.69 79.495C295.01 79.315 294.455 79.135 294.025 78.955C293.605 78.765 293.245 78.475 292.945 78.085C292.645 77.695 292.495 77.175 292.495 76.525C292.495 75.925 292.645 75.4 292.945 74.95C293.245 74.5 293.665 74.155 294.205 73.915C294.745 73.675 295.37 73.555 296.08 73.555C297.09 73.555 297.915 73.81 298.555 74.32C299.205 74.82 299.565 75.51 299.635 76.39H297.745C297.715 76.01 297.535 75.685 297.205 75.415C296.875 75.145 296.44 75.01 295.9 75.01C295.41 75.01 295.01 75.135 294.7 75.385C294.39 75.635 294.235 75.995 294.235 76.465C294.235 76.785 294.33 77.05 294.52 77.26C294.72 77.46 294.97 77.62 295.27 77.74C295.57 77.86 295.98 77.99 296.5 78.13C297.19 78.32 297.75 78.51 298.18 78.7C298.62 78.89 298.99 79.185 299.29 79.585C299.6 79.975 299.755 80.5 299.755 81.16C299.755 81.69 299.61 82.19 299.32 82.66C299.04 83.13 298.625 83.51 298.075 83.8C297.535 84.08 296.895 84.22 296.155 84.22ZM303.483 77.065C303.773 76.685 304.168 76.365 304.668 76.105C305.168 75.845 305.733 75.715 306.363 75.715C307.083 75.715 307.738 75.895 308.328 76.255C308.928 76.605 309.398 77.1 309.738 77.74C310.078 78.38 310.248 79.115 310.248 79.945C310.248 80.775 310.078 81.52 309.738 82.18C309.398 82.83 308.928 83.34 308.328 83.71C307.738 84.07 307.083 84.25 306.363 84.25C305.733 84.25 305.173 84.125 304.683 83.875C304.193 83.615 303.793 83.295 303.483 82.915V88.045H301.773V75.85H303.483V77.065ZM308.508 79.945C308.508 79.375 308.388 78.885 308.148 78.475C307.918 78.055 307.608 77.74 307.218 77.53C306.838 77.31 306.428 77.2 305.988 77.2C305.558 77.2 305.148 77.31 304.758 77.53C304.378 77.75 304.068 78.07 303.828 78.49C303.598 78.91 303.483 79.405 303.483 79.975C303.483 80.545 303.598 81.045 303.828 81.475C304.068 81.895 304.378 82.215 304.758 82.435C305.148 82.655 305.558 82.765 305.988 82.765C306.428 82.765 306.838 82.655 307.218 82.435C307.608 82.205 307.918 81.875 308.148 81.445C308.388 81.015 308.508 80.515 308.508 79.945ZM315.524 84.25C314.744 84.25 314.039 84.075 313.409 83.725C312.779 83.365 312.284 82.865 311.924 82.225C311.564 81.575 311.384 80.825 311.384 79.975C311.384 79.135 311.569 78.39 311.939 77.74C312.309 77.09 312.814 76.59 313.454 76.24C314.094 75.89 314.809 75.715 315.599 75.715C316.389 75.715 317.104 75.89 317.744 76.24C318.384 76.59 318.889 77.09 319.259 77.74C319.629 78.39 319.814 79.135 319.814 79.975C319.814 80.815 319.624 81.56 319.244 82.21C318.864 82.86 318.344 83.365 317.684 83.725C317.034 84.075 316.314 84.25 315.524 84.25ZM315.524 82.765C315.964 82.765 316.374 82.66 316.754 82.45C317.144 82.24 317.459 81.925 317.699 81.505C317.939 81.085 318.059 80.575 318.059 79.975C318.059 79.375 317.944 78.87 317.714 78.46C317.484 78.04 317.179 77.725 316.799 77.515C316.419 77.305 316.009 77.2 315.569 77.2C315.129 77.2 314.719 77.305 314.339 77.515C313.969 77.725 313.674 78.04 313.454 78.46C313.234 78.87 313.124 79.375 313.124 79.975C313.124 80.865 313.349 81.555 313.799 82.045C314.259 82.525 314.834 82.765 315.524 82.765ZM325.674 75.715C326.324 75.715 326.904 75.85 327.414 76.12C327.934 76.39 328.339 76.79 328.629 77.32C328.919 77.85 329.064 78.49 329.064 79.24V84.115H327.369V79.495C327.369 78.755 327.184 78.19 326.814 77.8C326.444 77.4 325.939 77.2 325.299 77.2C324.659 77.2 324.149 77.4 323.769 77.8C323.399 78.19 323.214 78.755 323.214 79.495V84.115H321.504V75.85H323.214V76.795C323.494 76.455 323.849 76.19 324.279 76C324.719 75.81 325.184 75.715 325.674 75.715ZM334.245 84.25C333.595 84.25 333.01 84.135 332.49 83.905C331.98 83.665 331.575 83.345 331.275 82.945C330.975 82.535 330.815 82.08 330.795 81.58H332.565C332.595 81.93 332.76 82.225 333.06 82.465C333.37 82.695 333.755 82.81 334.215 82.81C334.695 82.81 335.065 82.72 335.325 82.54C335.595 82.35 335.73 82.11 335.73 81.82C335.73 81.51 335.58 81.28 335.28 81.13C334.99 80.98 334.525 80.815 333.885 80.635C333.265 80.465 332.76 80.3 332.37 80.14C331.98 79.98 331.64 79.735 331.35 79.405C331.07 79.075 330.93 78.64 330.93 78.1C330.93 77.66 331.06 77.26 331.32 76.9C331.58 76.53 331.95 76.24 332.43 76.03C332.92 75.82 333.48 75.715 334.11 75.715C335.05 75.715 335.805 75.955 336.375 76.435C336.955 76.905 337.265 77.55 337.305 78.37H335.595C335.565 78 335.415 77.705 335.145 77.485C334.875 77.265 334.51 77.155 334.05 77.155C333.6 77.155 333.255 77.24 333.015 77.41C332.775 77.58 332.655 77.805 332.655 78.085C332.655 78.305 332.735 78.49 332.895 78.64C333.055 78.79 333.25 78.91 333.48 79C333.71 79.08 334.05 79.185 334.5 79.315C335.1 79.475 335.59 79.64 335.97 79.81C336.36 79.97 336.695 80.21 336.975 80.53C337.255 80.85 337.4 81.275 337.41 81.805C337.41 82.275 337.28 82.695 337.02 83.065C336.76 83.435 336.39 83.725 335.91 83.935C335.44 84.145 334.885 84.25 334.245 84.25ZM342.843 84.25C342.063 84.25 341.358 84.075 340.728 83.725C340.098 83.365 339.603 82.865 339.243 82.225C338.883 81.575 338.703 80.825 338.703 79.975C338.703 79.135 338.888 78.39 339.258 77.74C339.628 77.09 340.133 76.59 340.773 76.24C341.413 75.89 342.128 75.715 342.918 75.715C343.708 75.715 344.423 75.89 345.063 76.24C345.703 76.59 346.208 77.09 346.578 77.74C346.948 78.39 347.133 79.135 347.133 79.975C347.133 80.815 346.943 81.56 346.563 82.21C346.183 82.86 345.663 83.365 345.003 83.725C344.353 84.075 343.633 84.25 342.843 84.25ZM342.843 82.765C343.283 82.765 343.693 82.66 344.073 82.45C344.463 82.24 344.778 81.925 345.018 81.505C345.258 81.085 345.378 80.575 345.378 79.975C345.378 79.375 345.263 78.87 345.033 78.46C344.803 78.04 344.498 77.725 344.118 77.515C343.738 77.305 343.328 77.2 342.888 77.2C342.448 77.2 342.038 77.305 341.658 77.515C341.288 77.725 340.993 78.04 340.773 78.46C340.553 78.87 340.443 79.375 340.443 79.975C340.443 80.865 340.668 81.555 341.118 82.045C341.578 82.525 342.153 82.765 342.843 82.765ZM350.534 77.05C350.784 76.63 351.114 76.305 351.524 76.075C351.944 75.835 352.439 75.715 353.009 75.715V77.485H352.574C351.904 77.485 351.394 77.655 351.044 77.995C350.704 78.335 350.534 78.925 350.534 79.765V84.115H348.824V75.85H350.534V77.05Z" fill="white"/>
<path d="M76.8521 110.09L73.4591 119.125H71.7431L68.3371 110.09H69.9231L72.6011 117.604L75.2921 110.09H76.8521ZM84.6565 115.368C84.6565 115.637 84.6391 115.879 84.6045 116.096H79.1315C79.1748 116.668 79.3871 117.127 79.7685 117.474C80.1498 117.821 80.6178 117.994 81.1725 117.994C81.9698 117.994 82.5331 117.66 82.8625 116.993H84.4615C84.2448 117.652 83.8505 118.193 83.2785 118.618C82.7151 119.034 82.0131 119.242 81.1725 119.242C80.4878 119.242 79.8725 119.09 79.3265 118.787C78.7891 118.475 78.3645 118.042 78.0525 117.487C77.7491 116.924 77.5975 116.274 77.5975 115.537C77.5975 114.8 77.7448 114.155 78.0395 113.6C78.3428 113.037 78.7631 112.603 79.3005 112.3C79.8465 111.997 80.4705 111.845 81.1725 111.845C81.8485 111.845 82.4508 111.992 82.9795 112.287C83.5081 112.582 83.9198 112.998 84.2145 113.535C84.5091 114.064 84.6565 114.675 84.6565 115.368ZM83.1095 114.9C83.1008 114.354 82.9058 113.916 82.5245 113.587C82.1431 113.258 81.6708 113.093 81.1075 113.093C80.5961 113.093 80.1585 113.258 79.7945 113.587C79.4305 113.908 79.2138 114.345 79.1445 114.9H83.1095ZM87.5969 113.002C87.8136 112.638 88.0996 112.356 88.4549 112.157C88.8189 111.949 89.2479 111.845 89.7419 111.845V113.379H89.3649C88.7842 113.379 88.3422 113.526 88.0389 113.821C87.7442 114.116 87.5969 114.627 87.5969 115.355V119.125H86.1149V111.962H87.5969V113.002ZM93.7042 119.242C93.1408 119.242 92.6338 119.142 92.1832 118.943C91.7412 118.735 91.3902 118.458 91.1302 118.111C90.8702 117.756 90.7315 117.361 90.7142 116.928H92.2482C92.2742 117.231 92.4172 117.487 92.6772 117.695C92.9458 117.894 93.2795 117.994 93.6782 117.994C94.0942 117.994 94.4148 117.916 94.6402 117.76C94.8742 117.595 94.9912 117.387 94.9912 117.136C94.9912 116.867 94.8612 116.668 94.6012 116.538C94.3498 116.408 93.9468 116.265 93.3922 116.109C92.8548 115.962 92.4172 115.819 92.0792 115.68C91.7412 115.541 91.4465 115.329 91.1952 115.043C90.9525 114.757 90.8312 114.38 90.8312 113.912C90.8312 113.531 90.9438 113.184 91.1692 112.872C91.3945 112.551 91.7152 112.3 92.1312 112.118C92.5558 111.936 93.0412 111.845 93.5872 111.845C94.4018 111.845 95.0562 112.053 95.5502 112.469C96.0528 112.876 96.3215 113.435 96.3562 114.146H94.8742C94.8482 113.825 94.7182 113.57 94.4842 113.379C94.2502 113.188 93.9338 113.093 93.5352 113.093C93.1452 113.093 92.8462 113.167 92.6382 113.314C92.4302 113.461 92.3262 113.656 92.3262 113.899C92.3262 114.09 92.3955 114.25 92.5342 114.38C92.6728 114.51 92.8418 114.614 93.0412 114.692C93.2405 114.761 93.5352 114.852 93.9252 114.965C94.4452 115.104 94.8698 115.247 95.1992 115.394C95.5372 115.533 95.8275 115.741 96.0702 116.018C96.3128 116.295 96.4385 116.664 96.4472 117.123C96.4472 117.53 96.3345 117.894 96.1092 118.215C95.8838 118.536 95.5632 118.787 95.1472 118.969C94.7398 119.151 94.2588 119.242 93.7042 119.242ZM98.8025 111.013C98.5338 111.013 98.3085 110.922 98.1265 110.74C97.9445 110.558 97.8535 110.333 97.8535 110.064C97.8535 109.795 97.9445 109.57 98.1265 109.388C98.3085 109.206 98.5338 109.115 98.8025 109.115C99.0625 109.115 99.2835 109.206 99.4655 109.388C99.6475 109.57 99.7385 109.795 99.7385 110.064C99.7385 110.333 99.6475 110.558 99.4655 110.74C99.2835 110.922 99.0625 111.013 98.8025 111.013ZM99.5305 111.962V119.125H98.0485V111.962H99.5305ZM104.583 119.242C103.907 119.242 103.296 119.09 102.75 118.787C102.204 118.475 101.775 118.042 101.463 117.487C101.151 116.924 100.995 116.274 100.995 115.537C100.995 114.809 101.156 114.163 101.476 113.6C101.797 113.037 102.235 112.603 102.789 112.3C103.344 111.997 103.964 111.845 104.648 111.845C105.333 111.845 105.953 111.997 106.507 112.3C107.062 112.603 107.5 113.037 107.82 113.6C108.141 114.163 108.301 114.809 108.301 115.537C108.301 116.265 108.137 116.911 107.807 117.474C107.478 118.037 107.027 118.475 106.455 118.787C105.892 119.09 105.268 119.242 104.583 119.242ZM104.583 117.955C104.965 117.955 105.32 117.864 105.649 117.682C105.987 117.5 106.26 117.227 106.468 116.863C106.676 116.499 106.78 116.057 106.78 115.537C106.78 115.017 106.681 114.579 106.481 114.224C106.282 113.86 106.018 113.587 105.688 113.405C105.359 113.223 105.004 113.132 104.622 113.132C104.241 113.132 103.886 113.223 103.556 113.405C103.236 113.587 102.98 113.86 102.789 114.224C102.599 114.579 102.503 115.017 102.503 115.537C102.503 116.308 102.698 116.906 103.088 117.331C103.487 117.747 103.985 117.955 104.583 117.955ZM113.38 111.845C113.944 111.845 114.446 111.962 114.888 112.196C115.339 112.43 115.69 112.777 115.941 113.236C116.193 113.695 116.318 114.25 116.318 114.9V119.125H114.849V115.121C114.849 114.48 114.689 113.99 114.368 113.652C114.048 113.305 113.61 113.132 113.055 113.132C112.501 113.132 112.059 113.305 111.729 113.652C111.409 113.99 111.248 114.48 111.248 115.121V119.125H109.766V111.962H111.248V112.781C111.491 112.486 111.799 112.257 112.171 112.092C112.553 111.927 112.956 111.845 113.38 111.845ZM122.21 117.11C123.042 116.391 123.696 115.801 124.173 115.342C124.658 114.874 125.061 114.389 125.382 113.886C125.702 113.383 125.863 112.881 125.863 112.378C125.863 111.858 125.737 111.451 125.486 111.156C125.243 110.861 124.857 110.714 124.329 110.714C123.817 110.714 123.419 110.879 123.133 111.208C122.855 111.529 122.708 111.962 122.691 112.508H121.261C121.287 111.52 121.581 110.766 122.145 110.246C122.717 109.717 123.44 109.453 124.316 109.453C125.26 109.453 125.997 109.713 126.526 110.233C127.063 110.753 127.332 111.446 127.332 112.313C127.332 112.937 127.171 113.539 126.851 114.12C126.539 114.692 126.162 115.208 125.72 115.667C125.286 116.118 124.732 116.642 124.056 117.24L123.471 117.76H127.592V118.995H121.274V117.916L122.21 117.11ZM129.687 119.216C129.418 119.216 129.193 119.125 129.011 118.943C128.829 118.761 128.738 118.536 128.738 118.267C128.738 117.998 128.829 117.773 129.011 117.591C129.193 117.409 129.418 117.318 129.687 117.318C129.947 117.318 130.168 117.409 130.35 117.591C130.532 117.773 130.623 117.998 130.623 118.267C130.623 118.536 130.532 118.761 130.35 118.943C130.168 119.125 129.947 119.216 129.687 119.216ZM131.847 117.149V116.031L136.215 109.765H138.009V115.862H139.218V117.149H138.009V119.125H136.553V117.149H131.847ZM136.618 111.273L133.55 115.862H136.618V111.273ZM141.239 119.216C140.971 119.216 140.745 119.125 140.563 118.943C140.381 118.761 140.29 118.536 140.29 118.267C140.29 117.998 140.381 117.773 140.563 117.591C140.745 117.409 140.971 117.318 141.239 117.318C141.499 117.318 141.72 117.409 141.902 117.591C142.084 117.773 142.175 117.998 142.175 118.267C142.175 118.536 142.084 118.761 141.902 118.943C141.72 119.125 141.499 119.216 141.239 119.216ZM149.588 110.792L145.974 119.125H144.479L148.132 110.948H143.322V109.687H149.588V110.792Z" fill="white"/>
<path d="M76.8521 194.306L73.4591 203.341H71.7431L68.3371 194.306H69.9231L72.6011 201.82L75.2921 194.306H76.8521ZM84.6565 199.584C84.6565 199.853 84.6391 200.095 84.6045 200.312H79.1315C79.1748 200.884 79.3871 201.343 79.7685 201.69C80.1498 202.037 80.6178 202.21 81.1725 202.21C81.9698 202.21 82.5331 201.876 82.8625 201.209H84.4615C84.2448 201.868 83.8505 202.409 83.2785 202.834C82.7151 203.25 82.0131 203.458 81.1725 203.458C80.4878 203.458 79.8725 203.306 79.3265 203.003C78.7891 202.691 78.3645 202.258 78.0525 201.703C77.7491 201.14 77.5975 200.49 77.5975 199.753C77.5975 199.016 77.7448 198.371 78.0395 197.816C78.3428 197.253 78.7631 196.819 79.3005 196.516C79.8465 196.213 80.4705 196.061 81.1725 196.061C81.8485 196.061 82.4508 196.208 82.9795 196.503C83.5081 196.798 83.9198 197.214 84.2145 197.751C84.5091 198.28 84.6565 198.891 84.6565 199.584ZM83.1095 199.116C83.1008 198.57 82.9058 198.132 82.5245 197.803C82.1431 197.474 81.6708 197.309 81.1075 197.309C80.5961 197.309 80.1585 197.474 79.7945 197.803C79.4305 198.124 79.2138 198.561 79.1445 199.116H83.1095ZM87.5969 197.218C87.8136 196.854 88.0996 196.572 88.4549 196.373C88.8189 196.165 89.2479 196.061 89.7419 196.061V197.595H89.3649C88.7842 197.595 88.3422 197.742 88.0389 198.037C87.7442 198.332 87.5969 198.843 87.5969 199.571V203.341H86.1149V196.178H87.5969V197.218ZM93.7042 203.458C93.1408 203.458 92.6338 203.358 92.1832 203.159C91.7412 202.951 91.3902 202.674 91.1302 202.327C90.8702 201.972 90.7315 201.577 90.7142 201.144H92.2482C92.2742 201.447 92.4172 201.703 92.6772 201.911C92.9458 202.11 93.2795 202.21 93.6782 202.21C94.0942 202.21 94.4148 202.132 94.6402 201.976C94.8742 201.811 94.9912 201.603 94.9912 201.352C94.9912 201.083 94.8612 200.884 94.6012 200.754C94.3498 200.624 93.9468 200.481 93.3922 200.325C92.8548 200.178 92.4172 200.035 92.0792 199.896C91.7412 199.757 91.4465 199.545 91.1952 199.259C90.9525 198.973 90.8312 198.596 90.8312 198.128C90.8312 197.747 90.9438 197.4 91.1692 197.088C91.3945 196.767 91.7152 196.516 92.1312 196.334C92.5558 196.152 93.0412 196.061 93.5872 196.061C94.4018 196.061 95.0562 196.269 95.5502 196.685C96.0528 197.092 96.3215 197.651 96.3562 198.362H94.8742C94.8482 198.041 94.7182 197.786 94.4842 197.595C94.2502 197.404 93.9338 197.309 93.5352 197.309C93.1452 197.309 92.8462 197.383 92.6382 197.53C92.4302 197.677 92.3262 197.872 92.3262 198.115C92.3262 198.306 92.3955 198.466 92.5342 198.596C92.6728 198.726 92.8418 198.83 93.0412 198.908C93.2405 198.977 93.5352 199.068 93.9252 199.181C94.4452 199.32 94.8698 199.463 95.1992 199.61C95.5372 199.749 95.8275 199.957 96.0702 200.234C96.3128 200.511 96.4385 200.88 96.4472 201.339C96.4472 201.746 96.3345 202.11 96.1092 202.431C95.8838 202.752 95.5632 203.003 95.1472 203.185C94.7398 203.367 94.2588 203.458 93.7042 203.458ZM98.8025 195.229C98.5338 195.229 98.3085 195.138 98.1265 194.956C97.9445 194.774 97.8535 194.549 97.8535 194.28C97.8535 194.011 97.9445 193.786 98.1265 193.604C98.3085 193.422 98.5338 193.331 98.8025 193.331C99.0625 193.331 99.2835 193.422 99.4655 193.604C99.6475 193.786 99.7385 194.011 99.7385 194.28C99.7385 194.549 99.6475 194.774 99.4655 194.956C99.2835 195.138 99.0625 195.229 98.8025 195.229ZM99.5305 196.178V203.341H98.0485V196.178H99.5305ZM104.583 203.458C103.907 203.458 103.296 203.306 102.75 203.003C102.204 202.691 101.775 202.258 101.463 201.703C101.151 201.14 100.995 200.49 100.995 199.753C100.995 199.025 101.156 198.379 101.476 197.816C101.797 197.253 102.235 196.819 102.789 196.516C103.344 196.213 103.964 196.061 104.648 196.061C105.333 196.061 105.953 196.213 106.507 196.516C107.062 196.819 107.5 197.253 107.82 197.816C108.141 198.379 108.301 199.025 108.301 199.753C108.301 200.481 108.137 201.127 107.807 201.69C107.478 202.253 107.027 202.691 106.455 203.003C105.892 203.306 105.268 203.458 104.583 203.458ZM104.583 202.171C104.965 202.171 105.32 202.08 105.649 201.898C105.987 201.716 106.26 201.443 106.468 201.079C106.676 200.715 106.78 200.273 106.78 199.753C106.78 199.233 106.681 198.795 106.481 198.44C106.282 198.076 106.018 197.803 105.688 197.621C105.359 197.439 105.004 197.348 104.622 197.348C104.241 197.348 103.886 197.439 103.556 197.621C103.236 197.803 102.98 198.076 102.789 198.44C102.599 198.795 102.503 199.233 102.503 199.753C102.503 200.524 102.698 201.122 103.088 201.547C103.487 201.963 103.985 202.171 104.583 202.171ZM113.38 196.061C113.944 196.061 114.446 196.178 114.888 196.412C115.339 196.646 115.69 196.993 115.941 197.452C116.193 197.911 116.318 198.466 116.318 199.116V203.341H114.849V199.337C114.849 198.696 114.689 198.206 114.368 197.868C114.048 197.521 113.61 197.348 113.055 197.348C112.501 197.348 112.059 197.521 111.729 197.868C111.409 198.206 111.248 198.696 111.248 199.337V203.341H109.766V196.178H111.248V196.997C111.491 196.702 111.799 196.473 112.171 196.308C112.553 196.143 112.956 196.061 113.38 196.061ZM121.196 195.216V193.864H123.9V203.341H122.405V195.216H121.196ZM126.729 203.432C126.46 203.432 126.235 203.341 126.053 203.159C125.871 202.977 125.78 202.752 125.78 202.483C125.78 202.214 125.871 201.989 126.053 201.807C126.235 201.625 126.46 201.534 126.729 201.534C126.989 201.534 127.21 201.625 127.392 201.807C127.574 201.989 127.665 202.214 127.665 202.483C127.665 202.752 127.574 202.977 127.392 203.159C127.21 203.341 126.989 203.432 126.729 203.432ZM130.67 198.388C129.769 197.937 129.318 197.227 129.318 196.256C129.318 195.788 129.435 195.359 129.669 194.969C129.903 194.579 130.254 194.271 130.722 194.046C131.19 193.812 131.762 193.695 132.438 193.695C133.106 193.695 133.673 193.812 134.141 194.046C134.618 194.271 134.973 194.579 135.207 194.969C135.441 195.359 135.558 195.788 135.558 196.256C135.558 196.741 135.433 197.17 135.181 197.543C134.939 197.907 134.614 198.189 134.206 198.388C134.7 198.57 135.09 198.869 135.376 199.285C135.662 199.692 135.805 200.173 135.805 200.728C135.805 201.291 135.662 201.79 135.376 202.223C135.09 202.656 134.692 202.99 134.18 203.224C133.669 203.458 133.088 203.575 132.438 203.575C131.788 203.575 131.208 203.458 130.696 203.224C130.194 202.99 129.799 202.656 129.513 202.223C129.227 201.79 129.084 201.291 129.084 200.728C129.084 200.165 129.227 199.679 129.513 199.272C129.799 198.865 130.185 198.57 130.67 198.388ZM134.141 196.438C134.141 195.953 133.99 195.58 133.686 195.32C133.383 195.06 132.967 194.93 132.438 194.93C131.918 194.93 131.507 195.06 131.203 195.32C130.9 195.58 130.748 195.957 130.748 196.451C130.748 196.884 130.904 197.24 131.216 197.517C131.537 197.786 131.944 197.92 132.438 197.92C132.932 197.92 133.34 197.781 133.66 197.504C133.981 197.227 134.141 196.871 134.141 196.438ZM132.438 199.038C131.866 199.038 131.398 199.181 131.034 199.467C130.679 199.744 130.501 200.147 130.501 200.676C130.501 201.17 130.675 201.573 131.021 201.885C131.368 202.188 131.84 202.34 132.438 202.34C133.028 202.34 133.491 202.184 133.829 201.872C134.176 201.56 134.349 201.161 134.349 200.676C134.349 200.156 134.172 199.753 133.816 199.467C133.47 199.181 133.01 199.038 132.438 199.038ZM138.154 203.432C137.886 203.432 137.66 203.341 137.478 203.159C137.296 202.977 137.205 202.752 137.205 202.483C137.205 202.214 137.296 201.989 137.478 201.807C137.66 201.625 137.886 201.534 138.154 201.534C138.414 201.534 138.635 201.625 138.817 201.807C138.999 201.989 139.09 202.214 139.09 202.483C139.09 202.752 138.999 202.977 138.817 203.159C138.635 203.341 138.414 203.432 138.154 203.432ZM140.302 195.216V193.864H143.006V203.341H141.511V195.216H140.302Z" fill="white"/>
<path d="M76.8521 282.521L73.4591 291.556H71.7431L68.3371 282.521H69.9231L72.6011 290.035L75.2921 282.521H76.8521ZM84.6565 287.799C84.6565 288.068 84.6391 288.31 84.6045 288.527H79.1315C79.1748 289.099 79.3871 289.558 79.7685 289.905C80.1498 290.252 80.6178 290.425 81.1725 290.425C81.9698 290.425 82.5331 290.091 82.8625 289.424H84.4615C84.2448 290.083 83.8505 290.624 83.2785 291.049C82.7151 291.465 82.0131 291.673 81.1725 291.673C80.4878 291.673 79.8725 291.521 79.3265 291.218C78.7891 290.906 78.3645 290.473 78.0525 289.918C77.7491 289.355 77.5975 288.705 77.5975 287.968C77.5975 287.231 77.7448 286.586 78.0395 286.031C78.3428 285.468 78.7631 285.034 79.3005 284.731C79.8465 284.428 80.4705 284.276 81.1725 284.276C81.8485 284.276 82.4508 284.423 82.9795 284.718C83.5081 285.013 83.9198 285.429 84.2145 285.966C84.5091 286.495 84.6565 287.106 84.6565 287.799ZM83.1095 287.331C83.1008 286.785 82.9058 286.347 82.5245 286.018C82.1431 285.689 81.6708 285.524 81.1075 285.524C80.5961 285.524 80.1585 285.689 79.7945 286.018C79.4305 286.339 79.2138 286.776 79.1445 287.331H83.1095ZM87.5969 285.433C87.8136 285.069 88.0996 284.787 88.4549 284.588C88.8189 284.38 89.2479 284.276 89.7419 284.276V285.81H89.3649C88.7842 285.81 88.3422 285.957 88.0389 286.252C87.7442 286.547 87.5969 287.058 87.5969 287.786V291.556H86.1149V284.393H87.5969V285.433ZM93.7042 291.673C93.1408 291.673 92.6338 291.573 92.1832 291.374C91.7412 291.166 91.3902 290.889 91.1302 290.542C90.8702 290.187 90.7315 289.792 90.7142 289.359H92.2482C92.2742 289.662 92.4172 289.918 92.6772 290.126C92.9458 290.325 93.2795 290.425 93.6782 290.425C94.0942 290.425 94.4148 290.347 94.6402 290.191C94.8742 290.026 94.9912 289.818 94.9912 289.567C94.9912 289.298 94.8612 289.099 94.6012 288.969C94.3498 288.839 93.9468 288.696 93.3922 288.54C92.8548 288.393 92.4172 288.25 92.0792 288.111C91.7412 287.972 91.4465 287.76 91.1952 287.474C90.9525 287.188 90.8312 286.811 90.8312 286.343C90.8312 285.962 90.9438 285.615 91.1692 285.303C91.3945 284.982 91.7152 284.731 92.1312 284.549C92.5558 284.367 93.0412 284.276 93.5872 284.276C94.4018 284.276 95.0562 284.484 95.5502 284.9C96.0528 285.307 96.3215 285.866 96.3562 286.577H94.8742C94.8482 286.256 94.7182 286.001 94.4842 285.81C94.2502 285.619 93.9338 285.524 93.5352 285.524C93.1452 285.524 92.8462 285.598 92.6382 285.745C92.4302 285.892 92.3262 286.087 92.3262 286.33C92.3262 286.521 92.3955 286.681 92.5342 286.811C92.6728 286.941 92.8418 287.045 93.0412 287.123C93.2405 287.192 93.5352 287.283 93.9252 287.396C94.4452 287.535 94.8698 287.678 95.1992 287.825C95.5372 287.964 95.8275 288.172 96.0702 288.449C96.3128 288.726 96.4385 289.095 96.4472 289.554C96.4472 289.961 96.3345 290.325 96.1092 290.646C95.8838 290.967 95.5632 291.218 95.1472 291.4C94.7398 291.582 94.2588 291.673 93.7042 291.673ZM98.8025 283.444C98.5338 283.444 98.3085 283.353 98.1265 283.171C97.9445 282.989 97.8535 282.764 97.8535 282.495C97.8535 282.226 97.9445 282.001 98.1265 281.819C98.3085 281.637 98.5338 281.546 98.8025 281.546C99.0625 281.546 99.2835 281.637 99.4655 281.819C99.6475 282.001 99.7385 282.226 99.7385 282.495C99.7385 282.764 99.6475 282.989 99.4655 283.171C99.2835 283.353 99.0625 283.444 98.8025 283.444ZM99.5305 284.393V291.556H98.0485V284.393H99.5305ZM104.583 291.673C103.907 291.673 103.296 291.521 102.75 291.218C102.204 290.906 101.775 290.473 101.463 289.918C101.151 289.355 100.995 288.705 100.995 287.968C100.995 287.24 101.156 286.594 101.476 286.031C101.797 285.468 102.235 285.034 102.789 284.731C103.344 284.428 103.964 284.276 104.648 284.276C105.333 284.276 105.953 284.428 106.507 284.731C107.062 285.034 107.5 285.468 107.82 286.031C108.141 286.594 108.301 287.24 108.301 287.968C108.301 288.696 108.137 289.342 107.807 289.905C107.478 290.468 107.027 290.906 106.455 291.218C105.892 291.521 105.268 291.673 104.583 291.673ZM104.583 290.386C104.965 290.386 105.32 290.295 105.649 290.113C105.987 289.931 106.26 289.658 106.468 289.294C106.676 288.93 106.78 288.488 106.78 287.968C106.78 287.448 106.681 287.01 106.481 286.655C106.282 286.291 106.018 286.018 105.688 285.836C105.359 285.654 105.004 285.563 104.622 285.563C104.241 285.563 103.886 285.654 103.556 285.836C103.236 286.018 102.98 286.291 102.789 286.655C102.599 287.01 102.503 287.448 102.503 287.968C102.503 288.739 102.698 289.337 103.088 289.762C103.487 290.178 103.985 290.386 104.583 290.386ZM113.38 284.276C113.944 284.276 114.446 284.393 114.888 284.627C115.339 284.861 115.69 285.208 115.941 285.667C116.193 286.126 116.318 286.681 116.318 287.331V291.556H114.849V287.552C114.849 286.911 114.689 286.421 114.368 286.083C114.048 285.736 113.61 285.563 113.055 285.563C112.501 285.563 112.059 285.736 111.729 286.083C111.409 286.421 111.248 286.911 111.248 287.552V291.556H109.766V284.393H111.248V285.212C111.491 284.917 111.799 284.688 112.171 284.523C112.553 284.358 112.956 284.276 113.38 284.276ZM121.196 283.431V282.079H123.9V291.556H122.405V283.431H121.196ZM126.729 291.647C126.46 291.647 126.235 291.556 126.053 291.374C125.871 291.192 125.78 290.967 125.78 290.698C125.78 290.429 125.871 290.204 126.053 290.022C126.235 289.84 126.46 289.749 126.729 289.749C126.989 289.749 127.21 289.84 127.392 290.022C127.574 290.204 127.665 290.429 127.665 290.698C127.665 290.967 127.574 291.192 127.392 291.374C127.21 291.556 126.989 291.647 126.729 291.647ZM129.071 286.694C129.071 285.195 129.323 284.025 129.825 283.184C130.337 282.335 131.212 281.91 132.451 281.91C133.691 281.91 134.562 282.335 135.064 283.184C135.576 284.025 135.831 285.195 135.831 286.694C135.831 288.211 135.576 289.398 135.064 290.256C134.562 291.105 133.691 291.53 132.451 291.53C131.212 291.53 130.337 291.105 129.825 290.256C129.323 289.398 129.071 288.211 129.071 286.694ZM134.375 286.694C134.375 285.992 134.328 285.398 134.232 284.913C134.146 284.428 133.964 284.033 133.686 283.73C133.409 283.418 132.997 283.262 132.451 283.262C131.905 283.262 131.494 283.418 131.216 283.73C130.939 284.033 130.753 284.428 130.657 284.913C130.571 285.398 130.527 285.992 130.527 286.694C130.527 287.422 130.571 288.033 130.657 288.527C130.744 289.021 130.926 289.42 131.203 289.723C131.489 290.026 131.905 290.178 132.451 290.178C132.997 290.178 133.409 290.026 133.686 289.723C133.972 289.42 134.159 289.021 134.245 288.527C134.332 288.033 134.375 287.422 134.375 286.694ZM138.192 291.647C137.924 291.647 137.698 291.556 137.516 291.374C137.334 291.192 137.243 290.967 137.243 290.698C137.243 290.429 137.334 290.204 137.516 290.022C137.698 289.84 137.924 289.749 138.192 289.749C138.452 289.749 138.673 289.84 138.855 290.022C139.037 290.204 139.128 290.429 139.128 290.698C139.128 290.967 139.037 291.192 138.855 291.374C138.673 291.556 138.452 291.647 138.192 291.647ZM140.509 284.419C140.561 283.613 140.869 282.985 141.432 282.534C142.004 282.083 142.732 281.858 143.616 281.858C144.223 281.858 144.747 281.966 145.189 282.183C145.631 282.4 145.965 282.694 146.19 283.067C146.415 283.44 146.528 283.86 146.528 284.328C146.528 284.865 146.385 285.325 146.099 285.706C145.813 286.087 145.471 286.343 145.072 286.473V286.525C145.583 286.681 145.982 286.967 146.268 287.383C146.554 287.79 146.697 288.315 146.697 288.956C146.697 289.467 146.58 289.922 146.346 290.321C146.112 290.72 145.765 291.036 145.306 291.27C144.847 291.495 144.296 291.608 143.655 291.608C142.719 291.608 141.948 291.37 141.341 290.893C140.743 290.408 140.422 289.714 140.379 288.813H141.809C141.844 289.272 142.021 289.649 142.342 289.944C142.663 290.23 143.096 290.373 143.642 290.373C144.171 290.373 144.578 290.23 144.864 289.944C145.15 289.649 145.293 289.272 145.293 288.813C145.293 288.206 145.098 287.777 144.708 287.526C144.327 287.266 143.737 287.136 142.94 287.136H142.602V285.914H142.953C143.655 285.905 144.188 285.788 144.552 285.563C144.925 285.338 145.111 284.982 145.111 284.497C145.111 284.081 144.977 283.752 144.708 283.509C144.439 283.258 144.058 283.132 143.564 283.132C143.079 283.132 142.702 283.258 142.433 283.509C142.164 283.752 142.004 284.055 141.952 284.419H140.509Z" fill="white"/>
<path d="M422.265 78.88C422.265 77.86 422.5 76.945 422.97 76.135C423.45 75.325 424.095 74.695 424.905 74.245C425.725 73.785 426.62 73.555 427.59 73.555C428.7 73.555 429.685 73.83 430.545 74.38C431.415 74.92 432.045 75.69 432.435 76.69H430.38C430.11 76.14 429.735 75.73 429.255 75.46C428.775 75.19 428.22 75.055 427.59 75.055C426.9 75.055 426.285 75.21 425.745 75.52C425.205 75.83 424.78 76.275 424.47 76.855C424.17 77.435 424.02 78.11 424.02 78.88C424.02 79.65 424.17 80.325 424.47 80.905C424.78 81.485 425.205 81.935 425.745 82.255C426.285 82.565 426.9 82.72 427.59 82.72C428.22 82.72 428.775 82.585 429.255 82.315C429.735 82.045 430.11 81.635 430.38 81.085H432.435C432.045 82.085 431.415 82.855 430.545 83.395C429.685 83.935 428.7 84.205 427.59 84.205C426.61 84.205 425.715 83.98 424.905 83.53C424.095 83.07 423.45 82.435 422.97 81.625C422.5 80.815 422.265 79.9 422.265 78.88ZM441.922 75.85V84.115H440.212V83.14C439.942 83.48 439.587 83.75 439.147 83.95C438.717 84.14 438.257 84.235 437.767 84.235C437.117 84.235 436.532 84.1 436.012 83.83C435.502 83.56 435.097 83.16 434.797 82.63C434.507 82.1 434.362 81.46 434.362 80.71V75.85H436.057V80.455C436.057 81.195 436.242 81.765 436.612 82.165C436.982 82.555 437.487 82.75 438.127 82.75C438.767 82.75 439.272 82.555 439.642 82.165C440.022 81.765 440.212 81.195 440.212 80.455V75.85H441.922ZM447.178 84.25C446.528 84.25 445.943 84.135 445.423 83.905C444.913 83.665 444.508 83.345 444.208 82.945C443.908 82.535 443.748 82.08 443.728 81.58H445.498C445.528 81.93 445.693 82.225 445.993 82.465C446.303 82.695 446.688 82.81 447.148 82.81C447.628 82.81 447.998 82.72 448.258 82.54C448.528 82.35 448.663 82.11 448.663 81.82C448.663 81.51 448.513 81.28 448.213 81.13C447.923 80.98 447.458 80.815 446.818 80.635C446.198 80.465 445.693 80.3 445.303 80.14C444.913 79.98 444.573 79.735 444.283 79.405C444.003 79.075 443.863 78.64 443.863 78.1C443.863 77.66 443.993 77.26 444.253 76.9C444.513 76.53 444.883 76.24 445.363 76.03C445.853 75.82 446.413 75.715 447.043 75.715C447.983 75.715 448.738 75.955 449.308 76.435C449.888 76.905 450.198 77.55 450.238 78.37H448.528C448.498 78 448.348 77.705 448.078 77.485C447.808 77.265 447.443 77.155 446.983 77.155C446.533 77.155 446.188 77.24 445.948 77.41C445.708 77.58 445.588 77.805 445.588 78.085C445.588 78.305 445.668 78.49 445.828 78.64C445.988 78.79 446.183 78.91 446.413 79C446.643 79.08 446.983 79.185 447.433 79.315C448.033 79.475 448.523 79.64 448.903 79.81C449.293 79.97 449.628 80.21 449.908 80.53C450.188 80.85 450.333 81.275 450.343 81.805C450.343 82.275 450.213 82.695 449.953 83.065C449.693 83.435 449.323 83.725 448.843 83.935C448.373 84.145 447.818 84.25 447.178 84.25ZM454.185 77.245V81.82C454.185 82.13 454.255 82.355 454.395 82.495C454.545 82.625 454.795 82.69 455.145 82.69H456.195V84.115H454.845C454.075 84.115 453.485 83.935 453.075 83.575C452.665 83.215 452.46 82.63 452.46 81.82V77.245H451.485V75.85H452.46V73.795H454.185V75.85H456.195V77.245H454.185ZM461.356 84.25C460.576 84.25 459.871 84.075 459.241 83.725C458.611 83.365 458.116 82.865 457.756 82.225C457.396 81.575 457.216 80.825 457.216 79.975C457.216 79.135 457.401 78.39 457.771 77.74C458.141 77.09 458.646 76.59 459.286 76.24C459.926 75.89 460.641 75.715 461.431 75.715C462.221 75.715 462.936 75.89 463.576 76.24C464.216 76.59 464.721 77.09 465.091 77.74C465.461 78.39 465.646 79.135 465.646 79.975C465.646 80.815 465.456 81.56 465.076 82.21C464.696 82.86 464.176 83.365 463.516 83.725C462.866 84.075 462.146 84.25 461.356 84.25ZM461.356 82.765C461.796 82.765 462.206 82.66 462.586 82.45C462.976 82.24 463.291 81.925 463.531 81.505C463.771 81.085 463.891 80.575 463.891 79.975C463.891 79.375 463.776 78.87 463.546 78.46C463.316 78.04 463.011 77.725 462.631 77.515C462.251 77.305 461.841 77.2 461.401 77.2C460.961 77.2 460.551 77.305 460.171 77.515C459.801 77.725 459.506 78.04 459.286 78.46C459.066 78.87 458.956 79.375 458.956 79.975C458.956 80.865 459.181 81.555 459.631 82.045C460.091 82.525 460.666 82.765 461.356 82.765ZM477.342 75.715C477.992 75.715 478.572 75.85 479.082 76.12C479.602 76.39 480.007 76.79 480.297 77.32C480.597 77.85 480.747 78.49 480.747 79.24V84.115H479.052V79.495C479.052 78.755 478.867 78.19 478.497 77.8C478.127 77.4 477.622 77.2 476.982 77.2C476.342 77.2 475.832 77.4 475.452 77.8C475.082 78.19 474.897 78.755 474.897 79.495V84.115H473.202V79.495C473.202 78.755 473.017 78.19 472.647 77.8C472.277 77.4 471.772 77.2 471.132 77.2C470.492 77.2 469.982 77.4 469.602 77.8C469.232 78.19 469.047 78.755 469.047 79.495V84.115H467.337V75.85H469.047V76.795C469.327 76.455 469.682 76.19 470.112 76C470.542 75.81 471.002 75.715 471.492 75.715C472.152 75.715 472.742 75.855 473.262 76.135C473.782 76.415 474.182 76.82 474.462 77.35C474.712 76.85 475.102 76.455 475.632 76.165C476.162 75.865 476.732 75.715 477.342 75.715ZM490.498 79.78C490.498 80.09 490.478 80.37 490.438 80.62H484.123C484.173 81.28 484.418 81.81 484.858 82.21C485.298 82.61 485.838 82.81 486.478 82.81C487.398 82.81 488.048 82.425 488.428 81.655H490.273C490.023 82.415 489.568 83.04 488.908 83.53C488.258 84.01 487.448 84.25 486.478 84.25C485.688 84.25 484.978 84.075 484.348 83.725C483.728 83.365 483.238 82.865 482.878 82.225C482.528 81.575 482.353 80.825 482.353 79.975C482.353 79.125 482.523 78.38 482.863 77.74C483.213 77.09 483.698 76.59 484.318 76.24C484.948 75.89 485.668 75.715 486.478 75.715C487.258 75.715 487.953 75.885 488.563 76.225C489.173 76.565 489.648 77.045 489.988 77.665C490.328 78.275 490.498 78.98 490.498 79.78ZM488.713 79.24C488.703 78.61 488.478 78.105 488.038 77.725C487.598 77.345 487.053 77.155 486.403 77.155C485.813 77.155 485.308 77.345 484.888 77.725C484.468 78.095 484.218 78.6 484.138 79.24H488.713ZM493.891 77.05C494.141 76.63 494.471 76.305 494.881 76.075C495.301 75.835 495.796 75.715 496.366 75.715V77.485H495.931C495.261 77.485 494.751 77.655 494.401 77.995C494.061 78.335 493.891 78.925 493.891 79.765V84.115H492.181V75.85H493.891V77.05Z" fill="white"/>
<path d="M351.689 140.431H427.489" stroke="#00EBD7" stroke-width="2" stroke-miterlimit="10"/>
<path d="M196.259 140.431H290.327" stroke="#00EBD7" stroke-width="2" stroke-miterlimit="10"/>
<path opacity="0.5" d="M322.968 161.555C336.225 161.555 346.971 158.449 346.971 154.617C346.971 150.785 336.225 147.679 322.968 147.679C309.712 147.679 298.965 150.785 298.965 154.617C298.965 158.449 309.712 161.555 322.968 161.555Z" fill="#00EBD7"/>
<path d="M338.593 146.099C338.515 140.89 328.177 138.026 322.968 138.026C317.759 138.026 307.422 140.89 307.344 146.099C307.369 146.136 307.4 146.169 307.426 146.206C307.386 146.338 307.359 146.474 307.344 146.612V153.265C307.344 153.57 307.441 153.866 307.621 154.112C307.8 154.358 308.054 154.541 308.344 154.633C317.859 157.649 328.075 157.649 337.59 154.633C337.88 154.541 338.134 154.358 338.313 154.112C338.493 153.866 338.59 153.57 338.59 153.265V146.612C338.575 146.474 338.547 146.339 338.508 146.206C338.537 146.169 338.568 146.136 338.593 146.099Z" fill="#00D1C0" stroke="#000E33" stroke-linecap="round" stroke-linejoin="round"/>
<path d="M322.968 134.931C324.513 134.931 326.023 134.473 327.308 133.614C328.593 132.756 329.594 131.536 330.185 130.109C330.777 128.681 330.931 127.11 330.63 125.595C330.328 124.08 329.584 122.688 328.492 121.595C327.399 120.503 326.007 119.759 324.492 119.457C322.977 119.156 321.406 119.31 319.978 119.902C318.551 120.493 317.331 121.494 316.473 122.779C315.614 124.064 315.156 125.574 315.156 127.119C315.156 129.191 315.979 131.178 317.444 132.643C318.909 134.108 320.896 134.931 322.968 134.931Z" fill="#00EBD7" stroke="#000E33" stroke-linecap="round" stroke-linejoin="round"/>
<path opacity="0.5" d="M454.401 154.811C463.425 154.811 470.741 152.696 470.741 150.088C470.741 147.48 463.425 145.365 454.401 145.365C445.377 145.365 438.061 147.48 438.061 150.088C438.061 152.696 445.377 154.811 454.401 154.811Z" fill="#00EBD7"/>
<path d="M465.038 144.289C464.984 140.744 457.947 138.794 454.401 138.794C450.855 138.794 443.817 140.744 443.764 144.289C443.781 144.315 443.803 144.337 443.82 144.362C443.793 144.452 443.774 144.544 443.764 144.638V149.168C443.764 149.375 443.83 149.578 443.953 149.745C444.075 149.912 444.248 150.036 444.446 150.099C450.924 152.152 457.878 152.152 464.356 150.099C464.554 150.036 464.727 149.912 464.849 149.745C464.972 149.578 465.038 149.375 465.038 149.168V144.638C465.028 144.544 465.009 144.452 464.982 144.362C464.999 144.337 465.021 144.315 465.038 144.289Z" fill="#00D1C0" stroke="#000E33" stroke-linecap="round" stroke-linejoin="round"/>
<path d="M454.401 136.687C455.453 136.687 456.482 136.375 457.357 135.791C458.231 135.207 458.913 134.376 459.316 133.404C459.719 132.432 459.824 131.362 459.619 130.331C459.414 129.299 458.907 128.351 458.163 127.607C457.419 126.863 456.471 126.356 455.439 126.151C454.408 125.946 453.338 126.051 452.366 126.454C451.394 126.857 450.563 127.539 449.979 128.413C449.395 129.288 449.083 130.317 449.083 131.369C449.083 132.779 449.643 134.132 450.641 135.129C451.638 136.127 452.991 136.687 454.401 136.687Z" fill="#00EBD7" stroke="#000E33" stroke-linecap="round" stroke-linejoin="round"/>
<path d="M421.71 134.135L428.01 140.435L421.71 146.735" stroke="#00EBD7" stroke-width="2" stroke-miterlimit="10"/>
<path d="M195.876 309.825H428.006" stroke="#00EBD7" stroke-width="2" stroke-miterlimit="10"/>
<path opacity="0.5" d="M322.968 244.867C336.225 244.867 346.971 241.761 346.971 237.929C346.971 234.097 336.225 230.991 322.968 230.991C309.712 230.991 298.965 234.097 298.965 237.929C298.965 241.761 309.712 244.867 322.968 244.867Z" fill="#00EBD7"/>
<path d="M338.593 229.41C338.515 224.202 328.177 221.337 322.968 221.337C317.759 221.337 307.422 224.202 307.344 229.41C307.369 229.447 307.4 229.48 307.426 229.517C307.386 229.65 307.359 229.785 307.344 229.923V236.576C307.344 236.881 307.441 237.177 307.621 237.423C307.8 237.669 308.054 237.852 308.344 237.944C317.859 240.96 328.075 240.96 337.59 237.944C337.88 237.852 338.134 237.669 338.313 237.423C338.493 237.177 338.59 236.881 338.59 236.576V229.923C338.575 229.786 338.547 229.65 338.508 229.517C338.537 229.48 338.568 229.445 338.593 229.41Z" fill="#00D1C0" stroke="#000E33" stroke-linecap="round" stroke-linejoin="round"/>
<path d="M322.968 218.245C324.513 218.245 326.024 217.787 327.309 216.929C328.594 216.07 329.595 214.85 330.187 213.423C330.778 211.995 330.933 210.424 330.632 208.908C330.331 207.393 329.587 206.001 328.494 204.908C327.401 203.815 326.009 203.071 324.494 202.769C322.978 202.468 321.407 202.622 319.979 203.214C318.552 203.805 317.331 204.806 316.473 206.091C315.614 207.376 315.156 208.887 315.156 210.432C315.156 212.504 315.979 214.491 317.444 215.956C318.909 217.421 320.896 218.245 322.968 218.245Z" fill="#00EBD7" stroke="#000E33" stroke-linecap="round" stroke-linejoin="round"/>
<path opacity="0.5" d="M454.401 267.741C463.425 267.741 470.741 265.626 470.741 263.018C470.741 260.41 463.425 258.295 454.401 258.295C445.377 258.295 438.061 260.41 438.061 263.018C438.061 265.626 445.377 267.741 454.401 267.741Z" fill="#00EBD7"/>
<path d="M465.038 257.219C464.984 253.673 457.947 251.719 454.401 251.719C450.855 251.719 443.817 253.669 443.764 257.219C443.781 257.245 443.803 257.267 443.82 257.292C443.793 257.382 443.774 257.474 443.764 257.568V262.097C443.764 262.305 443.83 262.507 443.953 262.674C444.075 262.842 444.248 262.966 444.446 263.029C450.924 265.082 457.878 265.082 464.356 263.029C464.554 262.966 464.727 262.842 464.849 262.674C464.972 262.507 465.038 262.305 465.038 262.097V257.568C465.028 257.475 465.009 257.382 464.982 257.292C464.999 257.267 465.021 257.245 465.038 257.219Z" fill="#00D1C0" stroke="#000E33" stroke-linecap="round" stroke-linejoin="round"/>
<path d="M454.401 249.617C455.453 249.617 456.481 249.305 457.355 248.721C458.23 248.136 458.912 247.306 459.314 246.334C459.717 245.363 459.822 244.293 459.617 243.262C459.412 242.23 458.905 241.283 458.162 240.539C457.418 239.795 456.471 239.289 455.439 239.083C454.408 238.878 453.338 238.983 452.367 239.385C451.395 239.788 450.564 240.469 449.98 241.344C449.395 242.218 449.083 243.246 449.083 244.298C449.083 244.996 449.22 245.688 449.488 246.333C449.755 246.979 450.146 247.565 450.64 248.059C451.134 248.553 451.72 248.945 452.366 249.212C453.011 249.479 453.703 249.617 454.401 249.617Z" fill="#00EBD7" stroke="#000E33" stroke-linecap="round" stroke-linejoin="round"/>
<path opacity="0.5" d="M454.401 211.276C463.425 211.276 470.741 209.161 470.741 206.553C470.741 203.945 463.425 201.83 454.401 201.83C445.377 201.83 438.061 203.945 438.061 206.553C438.061 209.161 445.377 211.276 454.401 211.276Z" fill="#00EBD7"/>
<path d="M465.038 200.754C464.984 197.209 457.947 195.254 454.401 195.254C450.855 195.254 443.817 197.205 443.764 200.754C443.781 200.78 443.803 200.802 443.82 200.827C443.793 200.917 443.774 201.009 443.764 201.103V205.632C443.764 205.84 443.83 206.042 443.953 206.21C444.075 206.377 444.248 206.501 444.446 206.564C450.924 208.617 457.878 208.617 464.356 206.564C464.554 206.501 464.727 206.377 464.849 206.21C464.972 206.042 465.038 205.84 465.038 205.632V201.103C465.028 201.01 465.009 200.917 464.982 200.827C464.999 200.802 465.021 200.78 465.038 200.754Z" fill="#00D1C0" stroke="#000E33" stroke-linecap="round" stroke-linejoin="round"/>
<path d="M454.401 193.152C455.453 193.152 456.481 192.84 457.355 192.256C458.23 191.672 458.912 190.841 459.314 189.869C459.717 188.898 459.822 187.828 459.617 186.797C459.412 185.765 458.905 184.818 458.162 184.074C457.418 183.33 456.471 182.824 455.439 182.618C454.408 182.413 453.338 182.518 452.367 182.921C451.395 183.323 450.564 184.004 449.98 184.879C449.395 185.753 449.083 186.781 449.083 187.833C449.083 188.531 449.22 189.223 449.488 189.868C449.755 190.514 450.146 191.1 450.64 191.594C451.134 192.088 451.72 192.48 452.366 192.747C453.011 193.014 453.703 193.152 454.401 193.152Z" fill="#00EBD7" stroke="#000E33" stroke-linecap="round" stroke-linejoin="round"/>
<path opacity="0.5" d="M454.401 324.206C463.425 324.206 470.741 322.091 470.741 319.483C470.741 316.875 463.425 314.76 454.401 314.76C445.377 314.76 438.061 316.875 438.061 319.483C438.061 322.091 445.377 324.206 454.401 324.206Z" fill="#00EBD7"/>
<path d="M465.038 313.684C464.984 310.138 457.947 308.184 454.401 308.184C450.855 308.184 443.817 310.134 443.764 313.684C443.781 313.709 443.803 313.732 443.82 313.757C443.793 313.847 443.774 313.939 443.764 314.033V318.562C443.764 318.77 443.83 318.972 443.953 319.139C444.075 319.307 444.248 319.431 444.446 319.494C450.924 321.547 457.878 321.547 464.356 319.494C464.554 319.431 464.727 319.307 464.849 319.139C464.972 318.972 465.038 318.77 465.038 318.562V314.033C465.028 313.939 465.009 313.847 464.982 313.757C464.999 313.732 465.021 313.709 465.038 313.684Z" fill="#00D1C0" stroke="#000E33" stroke-linecap="round" stroke-linejoin="round"/>
<path d="M454.401 306.082C455.453 306.082 456.481 305.77 457.355 305.186C458.23 304.602 458.912 303.771 459.314 302.799C459.717 301.828 459.822 300.758 459.617 299.727C459.412 298.695 458.905 297.748 458.162 297.004C457.418 296.26 456.471 295.754 455.439 295.548C454.408 295.343 453.338 295.448 452.367 295.851C451.395 296.253 450.564 296.934 449.98 297.809C449.395 298.683 449.083 299.711 449.083 300.763C449.083 302.174 449.643 303.526 450.641 304.524C451.638 305.521 452.99 306.082 454.401 306.082Z" fill="#00EBD7" stroke="#000E33" stroke-linecap="round" stroke-linejoin="round"/>
<path d="M421.71 303.529L428.01 309.829L421.71 316.129" stroke="#00EBD7" stroke-width="2" stroke-miterlimit="10"/>
<path d="M285.299 134.135L291.599 140.435L285.299 146.735" stroke="#00EBD7" stroke-width="2" stroke-miterlimit="10"/>
<path d="M290.327 225.959C236.709 225.959 265.097 309.27 195.876 309.27" stroke="#00EBD7" stroke-width="2" stroke-miterlimit="10"/>
<path d="M285.299 219.663L291.599 225.963L285.299 232.263" stroke="#00EBD7" stroke-width="2" stroke-miterlimit="10"/>
<path d="M425.232 201.698C383.482 201.698 405.587 226.579 351.689 226.579" stroke="#00EBD7" stroke-width="2" stroke-miterlimit="10"/>
<path d="M420.204 195.402L426.504 201.702L420.204 208.002" stroke="#00EBD7" stroke-width="2" stroke-miterlimit="10"/>
<path d="M351.689 226.336C405.589 226.336 383.482 251.217 425.232 251.217" stroke="#00EBD7" stroke-width="2" stroke-miterlimit="10"/>
<path d="M420.204 257.513L426.504 251.213L420.204 244.913" stroke="#00EBD7" stroke-width="2" stroke-miterlimit="10"/>
<path d="M88.683 146.105V134.756L78.854 129.081L69.025 134.756V146.105L78.854 151.78L88.683 146.105Z" fill="#00EBD7" stroke="#000E33" stroke-linecap="round" stroke-linejoin="round"/>
<path d="M78.854 151.493V140.431L69.025 134.756V146.105L78.854 151.78V151.493Z" fill="#006B62" stroke="#000E33" stroke-linecap="round" stroke-linejoin="round"/>
<path d="M78.854 151.493V140.431L88.683 134.756V146.105L78.854 151.78V151.493Z" fill="#00D1C0" stroke="#000E33" stroke-linecap="round" stroke-linejoin="round"/>
<path d="M119.055 146.105V134.756L109.226 129.081L99.397 134.756V146.105L109.226 151.78L119.055 146.105Z" fill="#00EBD7" stroke="#000E33" stroke-linecap="round" stroke-linejoin="round"/>
<path d="M109.227 151.493V140.431L99.3981 134.756V146.105L109.227 151.78V151.493Z" fill="#006B62" stroke="#000E33" stroke-linecap="round" stroke-linejoin="round"/>
<path d="M109.227 151.493V140.431L119.056 134.756V146.105L109.227 151.78V151.493Z" fill="#00D1C0" stroke="#000E33" stroke-linecap="round" stroke-linejoin="round"/>
<path d="M149.427 146.105V134.756L139.598 129.081L129.775 134.756V146.105L139.604 151.78L149.427 146.105Z" fill="#00EBD7" stroke="#000E33" stroke-linecap="round" stroke-linejoin="round"/>
<path d="M139.599 151.493V140.431L129.775 134.756V146.105L139.604 151.78L139.599 151.493Z" fill="#006B62" stroke="#000E33" stroke-linecap="round" stroke-linejoin="round"/>
<path d="M139.599 151.493V140.431L149.428 134.756V146.105L139.599 151.78V151.493Z" fill="#00D1C0" stroke="#000E33" stroke-linecap="round" stroke-linejoin="round"/>
<path d="M179.8 146.105V134.756L169.971 129.081L160.142 134.756V146.105L169.971 151.78L179.8 146.105Z" fill="#00EBD7" stroke="#000E33" stroke-linecap="round" stroke-linejoin="round"/>
<path d="M169.975 151.493V140.431L160.146 134.756V146.105L169.975 151.78V151.493Z" fill="#006B62" stroke="#000E33" stroke-linecap="round" stroke-linejoin="round"/>
<path d="M169.975 151.493V140.431L179.804 134.756V146.105L169.975 151.78V151.493Z" fill="#00D1C0" stroke="#000E33" stroke-linecap="round" stroke-linejoin="round"/>
<path d="M88.683 229.417V218.068L78.854 212.393L69.025 218.068V229.417L78.854 235.092L88.683 229.417Z" fill="#00EBD7" stroke="#000E33" stroke-linecap="round" stroke-linejoin="round"/>
<path d="M78.854 234.804V223.745L69.025 218.07V229.419L78.854 235.094V234.804Z" fill="#006B62" stroke="#000E33" stroke-linecap="round" stroke-linejoin="round"/>
<path d="M78.854 234.804V223.745L88.683 218.07V229.419L78.854 235.094V234.804Z" fill="#00D1C0" stroke="#000E33" stroke-linecap="round" stroke-linejoin="round"/>
<path d="M119.055 229.417V218.068L109.226 212.393L99.397 218.068V229.417L109.226 235.092L119.055 229.417Z" fill="#00EBD7" stroke="#000E33" stroke-linecap="round" stroke-linejoin="round"/>
<path d="M109.227 234.804V223.745L99.3981 218.07V229.419L109.227 235.094V234.804Z" fill="#006B62" stroke="#000E33" stroke-linecap="round" stroke-linejoin="round"/>
<path d="M109.227 234.804V223.745L119.056 218.07V229.419L109.227 235.094V234.804Z" fill="#00D1C0" stroke="#000E33" stroke-linecap="round" stroke-linejoin="round"/>
<path d="M149.427 229.417V218.068L139.598 212.393L129.775 218.068V229.417L139.604 235.092L149.427 229.417Z" fill="#00EBD7" stroke="#000E33" stroke-linecap="round" stroke-linejoin="round"/>
<path d="M139.599 234.804V223.745L129.775 218.068V229.417L139.604 235.092L139.599 234.804Z" fill="#006B62" stroke="#000E33" stroke-linecap="round" stroke-linejoin="round"/>
<path d="M139.599 234.804V223.745L149.428 218.07V229.419L139.599 235.094V234.804Z" fill="#00D1C0" stroke="#000E33" stroke-linecap="round" stroke-linejoin="round"/>
<path d="M179.8 229.417V218.068L169.971 212.393L160.142 218.068V229.417L169.971 235.092L179.8 229.417Z" fill="#00EBD7" stroke="#000E33" stroke-linecap="round" stroke-linejoin="round"/>
<path d="M169.975 234.804V223.745L160.146 218.07V229.419L169.975 235.094V234.804Z" fill="#006B62" stroke="#000E33" stroke-linecap="round" stroke-linejoin="round"/>
<path d="M169.975 234.804V223.745L179.804 218.07V229.419L169.975 235.094V234.804Z" fill="#00D1C0" stroke="#000E33" stroke-linecap="round" stroke-linejoin="round"/>
<path d="M88.683 318.405V307.056L78.854 301.381L69.025 307.056V318.405L78.854 324.079L88.683 318.405Z" fill="#00EBD7" stroke="#000E33" stroke-linecap="round" stroke-linejoin="round"/>
<path d="M78.854 323.793V312.731L69.025 307.056V318.405L78.854 324.079V323.793Z" fill="#006B62" stroke="#000E33" stroke-linecap="round" stroke-linejoin="round"/>
<path d="M78.854 323.793V312.731L88.683 307.056V318.405L78.854 324.079V323.793Z" fill="#00D1C0" stroke="#000E33" stroke-linecap="round" stroke-linejoin="round"/>
<path d="M119.055 318.405V307.056L109.226 301.381L99.397 307.056V318.405L109.226 324.079L119.055 318.405Z" fill="#00EBD7" stroke="#000E33" stroke-linecap="round" stroke-linejoin="round"/>
<path d="M109.227 323.793V312.731L99.3981 307.056V318.405L109.227 324.079V323.793Z" fill="#006B62" stroke="#000E33" stroke-linecap="round" stroke-linejoin="round"/>
<path d="M109.227 323.793V312.731L119.056 307.056V318.405L109.227 324.079V323.793Z" fill="#00D1C0" stroke="#000E33" stroke-linecap="round" stroke-linejoin="round"/>
<path d="M149.427 318.405V307.056L139.598 301.381L129.775 307.056V318.405L139.604 324.079L149.427 318.405Z" fill="#00EBD7" stroke="#000E33" stroke-linecap="round" stroke-linejoin="round"/>
<path d="M139.599 323.793V312.731L129.775 307.056V318.405L139.604 324.079L139.599 323.793Z" fill="#006B62" stroke="#000E33" stroke-linecap="round" stroke-linejoin="round"/>
<path d="M139.599 323.793V312.731L149.428 307.056V318.405L139.599 324.079V323.793Z" fill="#00D1C0" stroke="#000E33" stroke-linecap="round" stroke-linejoin="round"/>
<path d="M179.8 318.405V307.056L169.971 301.381L160.142 307.056V318.405L169.971 324.079L179.8 318.405Z" fill="#00EBD7" stroke="#000E33" stroke-linecap="round" stroke-linejoin="round"/>
<path d="M169.975 323.793V312.731L160.146 307.056V318.405L169.975 324.079V323.793Z" fill="#006B62" stroke="#000E33" stroke-linecap="round" stroke-linejoin="round"/>
<path d="M169.975 323.793V312.731L179.804 307.056V318.405L169.975 324.079V323.793Z" fill="#00D1C0" stroke="#000E33" stroke-linecap="round" stroke-linejoin="round"/>
<path d="M186.349 32H68.6541V73.911H186.349V32Z" fill="#00EBD7" stroke="#000E33" stroke-linecap="round" stroke-linejoin="round"/>
<path d="M104.813 53.079C104.813 53.639 104.678 54.164 104.408 54.654C104.148 55.144 103.733 55.539 103.163 55.839C102.603 56.139 101.893 56.289 101.033 56.289H99.2781V60.309H97.1781V49.839H101.033C101.843 49.839 102.533 49.979 103.103 50.259C103.673 50.539 104.098 50.924 104.378 51.414C104.668 51.904 104.813 52.459 104.813 53.079ZM100.943 54.594C101.523 54.594 101.953 54.464 102.233 54.204C102.513 53.934 102.653 53.559 102.653 53.079C102.653 52.059 102.083 51.549 100.943 51.549H99.2781V54.594H100.943ZM108.404 53.289C108.674 52.849 109.024 52.504 109.454 52.254C109.894 52.004 110.394 51.879 110.954 51.879V54.084H110.399C109.739 54.084 109.239 54.239 108.899 54.549C108.569 54.859 108.404 55.399 108.404 56.169V60.309H106.304V51.999H108.404V53.289ZM116.058 60.444C115.258 60.444 114.538 60.269 113.898 59.919C113.258 59.559 112.753 59.054 112.383 58.404C112.023 57.754 111.843 57.004 111.843 56.154C111.843 55.304 112.028 54.554 112.398 53.904C112.778 53.254 113.293 52.754 113.943 52.404C114.593 52.044 115.318 51.864 116.118 51.864C116.918 51.864 117.643 52.044 118.293 52.404C118.943 52.754 119.453 53.254 119.823 53.904C120.203 54.554 120.393 55.304 120.393 56.154C120.393 57.004 120.198 57.754 119.808 58.404C119.428 59.054 118.908 59.559 118.248 59.919C117.598 60.269 116.868 60.444 116.058 60.444ZM116.058 58.614C116.438 58.614 116.793 58.524 117.123 58.344C117.463 58.154 117.733 57.874 117.933 57.504C118.133 57.134 118.233 56.684 118.233 56.154C118.233 55.364 118.023 54.759 117.603 54.339C117.193 53.909 116.688 53.694 116.088 53.694C115.488 53.694 114.983 53.909 114.573 54.339C114.173 54.759 113.973 55.364 113.973 56.154C113.973 56.944 114.168 57.554 114.558 57.984C114.958 58.404 115.458 58.614 116.058 58.614ZM121.394 56.124C121.394 55.284 121.559 54.539 121.889 53.889C122.229 53.239 122.689 52.739 123.269 52.389C123.849 52.039 124.494 51.864 125.204 51.864C125.744 51.864 126.259 51.984 126.749 52.224C127.239 52.454 127.629 52.764 127.919 53.154V49.209H130.049V60.309H127.919V59.079C127.659 59.489 127.294 59.819 126.824 60.069C126.354 60.319 125.809 60.444 125.189 60.444C124.489 60.444 123.849 60.264 123.269 59.904C122.689 59.544 122.229 59.039 121.889 58.389C121.559 57.729 121.394 56.974 121.394 56.124ZM127.934 56.154C127.934 55.644 127.834 55.209 127.634 54.849C127.434 54.479 127.164 54.199 126.824 54.009C126.484 53.809 126.119 53.709 125.729 53.709C125.339 53.709 124.979 53.804 124.649 53.994C124.319 54.184 124.049 54.464 123.839 54.834C123.639 55.194 123.539 55.624 123.539 56.124C123.539 56.624 123.639 57.064 123.839 57.444C124.049 57.814 124.319 58.099 124.649 58.299C124.989 58.499 125.349 58.599 125.729 58.599C126.119 58.599 126.484 58.504 126.824 58.314C127.164 58.114 127.434 57.834 127.634 57.474C127.834 57.104 127.934 56.664 127.934 56.154ZM139.945 51.999V60.309H137.83V59.259C137.56 59.619 137.205 59.904 136.765 60.114C136.335 60.314 135.865 60.414 135.355 60.414C134.705 60.414 134.13 60.279 133.63 60.009C133.13 59.729 132.735 59.324 132.445 58.794C132.165 58.254 132.025 57.614 132.025 56.874V51.999H134.125V56.574C134.125 57.234 134.29 57.744 134.62 58.104C134.95 58.454 135.4 58.629 135.97 58.629C136.55 58.629 137.005 58.454 137.335 58.104C137.665 57.744 137.83 57.234 137.83 56.574V51.999H139.945ZM141.477 56.154C141.477 55.294 141.652 54.544 142.002 53.904C142.352 53.254 142.837 52.754 143.457 52.404C144.077 52.044 144.787 51.864 145.587 51.864C146.617 51.864 147.467 52.124 148.137 52.644C148.817 53.154 149.272 53.874 149.502 54.804H147.237C147.117 54.444 146.912 54.164 146.622 53.964C146.342 53.754 145.992 53.649 145.572 53.649C144.972 53.649 144.497 53.869 144.147 54.309C143.797 54.739 143.622 55.354 143.622 56.154C143.622 56.944 143.797 57.559 144.147 57.999C144.497 58.429 144.972 58.644 145.572 58.644C146.422 58.644 146.977 58.264 147.237 57.504H149.502C149.272 58.404 148.817 59.119 148.137 59.649C147.457 60.179 146.607 60.444 145.587 60.444C144.787 60.444 144.077 60.269 143.457 59.919C142.837 59.559 142.352 59.059 142.002 58.419C141.652 57.769 141.477 57.014 141.477 56.154ZM153.485 53.724V57.744C153.485 58.024 153.55 58.229 153.68 58.359C153.82 58.479 154.05 58.539 154.37 58.539H155.345V60.309H154.025C152.255 60.309 151.37 59.449 151.37 57.729V53.724H150.38V51.999H151.37V49.944H153.485V51.999H155.345V53.724H153.485Z" fill="white"/>
<path d="M59.191 41.462V83.313L68.654 73.85V32L59.191 41.462Z" fill="#006B62" stroke="#000E33" stroke-linecap="round" stroke-linejoin="round"/>
<path d="M176.613 83.373H59.191L68.654 73.91H186.075L176.613 83.373Z" fill="#00D1C0" stroke="#000E33" stroke-linecap="round" stroke-linejoin="round"/>
</svg>
