<svg width="39" height="44" viewBox="0 0 39 44" fill="none" xmlns="http://www.w3.org/2000/svg">
<path d="M0 12.7005V30.6475C6.80884e-05 31.3016 0.172305 31.9443 0.499512 32.5107C0.826719 33.0772 1.29738 33.5476 1.86401 33.8745L17.406 42.8485C17.9727 43.1752 18.6153 43.3472 19.2694 43.3472C19.9236 43.3472 20.5662 43.1752 21.1329 42.8485L36.6749 33.8705C37.2416 33.5436 37.7122 33.0732 38.0394 32.5068C38.3666 31.9403 38.5389 31.2977 38.5389 30.6435V12.7005C38.5388 12.0462 38.3666 11.4034 38.0394 10.8368C37.7122 10.2702 37.2416 9.79963 36.6749 9.47247L21.1329 0.499512C20.5664 0.172301 19.9237 0 19.2694 0C18.6152 0 17.9725 0.172301 17.406 0.499512L1.86401 9.47247C1.29737 9.79963 0.826707 10.2702 0.499512 10.8368C0.172316 11.4034 9.52553e-05 12.0462 0 12.7005Z" fill="#00D0BF"/>
<path d="M11.1111 28.3585C9.22595 28.3564 7.41853 27.6067 6.08545 26.2738C4.75237 24.9409 4.00238 23.1336 4 21.2485V21.1115C4 19.226 4.74899 17.4177 6.08215 16.0843C7.41532 14.751 9.22349 14.0018 11.109 14.0015C12.0428 13.9991 12.9679 14.1818 13.8306 14.5392C14.6933 14.8966 15.4765 15.4215 16.135 16.0835L18.4541 18.3155L16.597 20.2435L14.26 17.9935C13.8484 17.5761 13.3578 17.2447 12.8168 17.0188C12.2758 16.7928 11.6953 16.6768 11.109 16.6775C10.5267 16.6774 9.95013 16.792 9.41211 17.0148C8.87409 17.2376 8.38515 17.5641 7.97339 17.9759C7.56163 18.3877 7.23511 18.8765 7.01233 19.4145C6.78955 19.9525 6.67492 20.5292 6.67505 21.1115V21.2485C6.67497 22.1256 6.93497 22.983 7.42224 23.7123C7.90951 24.4415 8.60214 25.0099 9.41248 25.3455C10.2228 25.6811 11.1145 25.7688 11.9747 25.5976C12.8349 25.4263 13.6249 25.0038 14.245 24.3835L22.545 16.0835C23.5395 15.0892 24.8064 14.412 26.1857 14.1376C27.5649 13.8633 28.9946 14.004 30.2938 14.5421C31.5931 15.0801 32.7037 15.9913 33.4851 17.1605C34.2666 18.3296 34.6838 19.7042 34.6841 21.1105V21.2475C34.6841 23.133 33.9351 24.9413 32.6019 26.2747C31.2688 27.608 29.4606 28.3573 27.5751 28.3575C26.6411 28.3601 25.7159 28.1774 24.853 27.82C23.9901 27.4626 23.2067 26.9377 22.5481 26.2755L20.365 24.0915L22.2571 22.1985L24.441 24.3825C24.8514 24.7958 25.3397 25.1236 25.8777 25.3467C26.4157 25.5699 26.9926 25.684 27.5751 25.6825C28.751 25.6822 29.8786 25.215 30.7101 24.3835C31.5416 23.552 32.0088 22.4244 32.009 21.2485V21.1115C32.0088 20.2344 31.7486 19.3771 31.2612 18.648C30.7738 17.9188 30.0811 17.3505 29.2708 17.015C28.4604 16.6794 27.5688 16.5917 26.7086 16.7628C25.8484 16.934 25.0582 17.3563 24.438 17.9765L16.1381 26.2765C15.4794 26.9387 14.696 27.4636 13.8331 27.821C12.9702 28.1784 12.045 28.3611 11.1111 28.3585Z" fill="#067090"/>
</svg>
