<svg width="50" height="40" viewBox="0 0 50 40" fill="none" xmlns="http://www.w3.org/2000/svg">
<g clip-path="url(#clip0_490_5348)">
<path d="M25.912 22.603C27.5269 22.603 28.836 21.2939 28.836 19.679C28.836 18.0641 27.5269 16.755 25.912 16.755C24.2972 16.755 22.988 18.0641 22.988 19.679C22.988 21.2939 24.2972 22.603 25.912 22.603Z" fill="white"/>
<path d="M17.072 33.036C15.38 37.736 11.056 39.703 5.39502 39.308C10.829 34.832 10.353 29.298 8.12103 23.448L17.072 33.036Z" fill="#00D0BF"/>
<path d="M43.696 23.652C45.3573 22.5378 46.7287 21.0431 47.6959 19.2921C48.6632 17.5411 49.1984 15.5845 49.257 13.585C49.257 6.08501 41.718 -1.29114e-05 32.418 -1.29114e-05C27.569 -0.0953303 22.8753 1.71163 19.342 5.03398C28.942 6.02798 36.362 12.634 36.362 20.642C36.3499 22.8853 35.7647 25.0883 34.662 27.042C35.5374 26.9477 36.4059 26.7974 37.262 26.592C39.371 29.767 43.162 31.092 47.882 30.762C45.6051 29.0355 44.1009 26.4807 43.696 23.652Z" fill="#067090"/>
<path d="M16.838 34.227C26.1374 34.227 33.676 28.1448 33.676 20.642C33.676 13.1392 26.1374 7.05701 16.838 7.05701C7.53863 7.05701 0 13.1392 0 20.642C0 28.1448 7.53863 34.227 16.838 34.227Z" fill="#00D0BF"/>
<path d="M9.15301 23.315C10.3868 23.315 11.387 22.3148 11.387 21.081C11.387 19.8472 10.3868 18.847 9.15301 18.847C7.9192 18.847 6.91901 19.8472 6.91901 21.081C6.91901 22.3148 7.9192 23.315 9.15301 23.315Z" fill="#067090"/>
<path d="M16.838 23.315C18.0718 23.315 19.072 22.3148 19.072 21.081C19.072 19.8472 18.0718 18.847 16.838 18.847C15.6042 18.847 14.604 19.8472 14.604 21.081C14.604 22.3148 15.6042 23.315 16.838 23.315Z" fill="#067090"/>
<path d="M24.522 23.315C25.7558 23.315 26.756 22.3148 26.756 21.081C26.756 19.8472 25.7558 18.847 24.522 18.847C23.2882 18.847 22.288 19.8472 22.288 21.081C22.288 22.3148 23.2882 23.315 24.522 23.315Z" fill="#067090"/>
</g>
<defs>
<clipPath id="clip0_490_5348">
<rect width="49.257" height="39.357" fill="white"/>
</clipPath>
</defs>
</svg>
