<svg width="50" height="36" viewBox="0 0 50 36" fill="none" xmlns="http://www.w3.org/2000/svg">
<g clip-path="url(#clip0_490_5360)">
<path d="M41.2461 13.862H37.8621V35.003H41.2461V13.862Z" fill="#067090"/>
<path d="M12.033 0H9.28699V11.151H12.033V0Z" fill="#00D0BF"/>
<path d="M9.28699 11.15H33.258C33.231 10.9578 33.2167 10.7641 33.215 10.57C33.2152 9.99544 33.3285 9.42651 33.5485 8.89575C33.7686 8.36499 34.0911 7.88278 34.4976 7.47668C34.904 7.07059 35.3865 6.74857 35.9175 6.52899C36.4484 6.30942 37.0175 6.19663 37.592 6.19702V-0.00299072H11.756C11.756 0.0170093 11.762 0.0359692 11.762 0.0559692C11.7667 0.22144 11.7382 0.386214 11.6781 0.540466C11.618 0.694719 11.5277 0.835336 11.4123 0.954041C11.2969 1.07274 11.1589 1.16713 11.0064 1.23157C10.8539 1.296 10.6901 1.32916 10.5245 1.32916C10.359 1.32916 10.1951 1.296 10.0427 1.23157C9.89018 1.16713 9.75216 1.07274 9.63678 0.954041C9.5214 0.835336 9.43098 0.694719 9.37091 0.540466C9.31084 0.386214 9.28228 0.22144 9.28699 0.0559692C9.28699 0.0359692 9.29203 0.0170093 9.29303 -0.00299072H0V6.19702C1.15926 6.19702 2.27104 6.65751 3.09076 7.47723C3.91048 8.29696 4.37103 9.40873 4.37103 10.568C4.37103 11.7273 3.91048 12.839 3.09076 13.6588C2.27104 14.4785 1.15926 14.939 0 14.939V21.139H9.28699V11.15ZM10.525 3.03302C10.7699 3.03302 11.0092 3.1056 11.2128 3.24164C11.4164 3.37767 11.5751 3.57103 11.6688 3.79724C11.7625 4.02346 11.787 4.27236 11.7393 4.51251C11.6915 4.75266 11.5735 4.97329 11.4004 5.14642C11.2273 5.31956 11.0067 5.43746 10.7665 5.48523C10.5264 5.533 10.2775 5.50844 10.0513 5.41473C9.82505 5.32103 9.6317 5.16239 9.49567 4.9588C9.35963 4.75521 9.28699 4.51585 9.28699 4.271C9.28699 3.94266 9.41743 3.62774 9.6496 3.39557C9.88177 3.1634 10.1967 3.03302 10.525 3.03302ZM10.525 7.24597C10.7699 7.24597 11.0092 7.31862 11.2128 7.45465C11.4164 7.59068 11.5751 7.78404 11.6688 8.01025C11.7625 8.23647 11.787 8.48538 11.7393 8.72552C11.6915 8.96567 11.5735 9.18624 11.4004 9.35938C11.2273 9.53251 11.0067 9.65041 10.7665 9.69818C10.5264 9.74595 10.2775 9.72145 10.0513 9.62775C9.82505 9.53405 9.6317 9.3754 9.49567 9.17181C9.35963 8.96823 9.28699 8.72886 9.28699 8.48401C9.28686 8.32139 9.31881 8.16033 9.38098 8.01007C9.44315 7.85981 9.53437 7.72326 9.64935 7.60828C9.76434 7.49329 9.90083 7.40213 10.0511 7.33997C10.2013 7.2778 10.3624 7.24584 10.525 7.24597Z" fill="#067090"/>
<path d="M49.6219 20.061V13.861H40.3329V13.881C40.3329 14.2093 40.2025 14.5242 39.9703 14.7564C39.7382 14.9886 39.4233 15.119 39.095 15.119C38.7666 15.119 38.4517 14.9886 38.2195 14.7564C37.9874 14.5242 37.8569 14.2093 37.8569 13.881C37.8569 13.874 37.8569 13.868 37.8569 13.861H12.033V20.061C12.6129 20.0522 13.1887 20.1589 13.727 20.3748C14.2653 20.5906 14.7553 20.9113 15.1685 21.3183C15.5817 21.7253 15.9098 22.2104 16.1338 22.7454C16.3578 23.2803 16.4731 23.8545 16.4731 24.4345C16.4731 25.0145 16.3578 25.5886 16.1338 26.1236C15.9098 26.6586 15.5817 27.1437 15.1685 27.5507C14.7553 27.9576 14.2653 28.2784 13.727 28.4943C13.1887 28.7101 12.6129 28.8168 12.033 28.808V35.008H37.8649C37.8649 34.988 37.8589 34.969 37.8589 34.949C37.8589 34.6206 37.9894 34.3058 38.2216 34.0736C38.4537 33.8414 38.7686 33.711 39.097 33.711C39.4253 33.711 39.7402 33.8414 39.9724 34.0736C40.2045 34.3058 40.335 34.6206 40.335 34.949C40.335 34.969 40.33 34.988 40.329 35.008H49.6219V28.808C48.4743 28.7906 47.3795 28.3226 46.574 27.5048C45.7686 26.6871 45.3171 25.5853 45.3171 24.4375C45.3171 23.2897 45.7686 22.1879 46.574 21.3702C47.3795 20.5524 48.4743 20.0844 49.6219 20.067V20.061ZM39.097 31.968C38.8521 31.968 38.6128 31.8954 38.4092 31.7593C38.2056 31.6233 38.0469 31.43 37.9532 31.2037C37.8595 30.9775 37.835 30.7286 37.8828 30.4885C37.9305 30.2483 38.0484 30.0278 38.2216 29.8546C38.3947 29.6815 38.6153 29.5636 38.8554 29.5158C39.0956 29.468 39.3445 29.4925 39.5707 29.5862C39.797 29.6799 39.9903 29.8386 40.1263 30.0422C40.2624 30.2458 40.335 30.4851 40.335 30.73C40.335 31.0583 40.2045 31.3732 39.9724 31.6054C39.7402 31.8376 39.4253 31.968 39.097 31.968ZM39.097 27.756C38.8521 27.756 38.6128 27.6834 38.4092 27.5474C38.2056 27.4113 38.0469 27.218 37.9532 26.9918C37.8595 26.7655 37.835 26.5166 37.8828 26.2765C37.9305 26.0363 38.0484 25.8157 38.2216 25.6426C38.3947 25.4694 38.6153 25.3515 38.8554 25.3038C39.0956 25.256 39.3445 25.2805 39.5707 25.3742C39.797 25.4679 39.9903 25.6266 40.1263 25.8302C40.2624 26.0338 40.335 26.2732 40.335 26.518C40.335 26.8463 40.2045 27.1612 39.9724 27.3934C39.7402 27.6255 39.4253 27.756 39.097 27.756ZM39.097 23.543C38.8524 23.5428 38.6133 23.4701 38.41 23.334C38.2067 23.198 38.0483 23.0047 37.9548 22.7787C37.8614 22.5526 37.837 22.304 37.8848 22.0641C37.9327 21.8242 38.0506 21.6039 38.2236 21.431C38.3967 21.2581 38.6171 21.1404 38.857 21.0927C39.0969 21.0451 39.3456 21.0696 39.5716 21.1633C39.7976 21.2569 39.9906 21.4154 40.1265 21.6188C40.2624 21.8222 40.335 22.0614 40.335 22.306C40.3347 22.6341 40.2041 22.9488 39.972 23.1807C39.7398 23.4127 39.4251 23.543 39.097 23.543ZM39.097 19.331C38.8524 19.3308 38.6134 19.2581 38.4101 19.1221C38.2068 18.9861 38.0485 18.7929 37.955 18.5669C37.8615 18.3409 37.837 18.0923 37.8848 17.8524C37.9325 17.6126 38.0503 17.3922 38.2233 17.2193C38.3962 17.0464 38.6165 16.9286 38.8564 16.8808C39.0962 16.833 39.3449 16.8575 39.5709 16.951C39.7969 17.0445 39.99 17.2029 40.126 17.4061C40.262 17.6094 40.3348 17.8484 40.335 18.093C40.335 18.4214 40.2045 18.7362 39.9724 18.9684C39.7402 19.2006 39.4253 19.331 39.097 19.331Z" fill="#00D0BF"/>
</g>
<defs>
<clipPath id="clip0_490_5360">
<rect width="49.622" height="35.002" fill="white"/>
</clipPath>
</defs>
</svg>
