<svg width="50" height="50" viewBox="0 0 50 50" fill="none" xmlns="http://www.w3.org/2000/svg">
<path d="M24.8162 0C24.3006 0.0039685 23.7957 0.148137 23.3556 0.417053C22.9156 0.68597 22.557 1.06951 22.3182 1.52661C22.0794 1.98371 21.9695 2.49711 22.0001 3.0119C22.0308 3.52669 22.2009 4.02345 22.4923 4.44897C22.841 4.94705 23.0269 5.54096 23.0243 6.14899V25.643H26.6082V6.15198C26.6056 5.54395 26.7915 4.9501 27.1402 4.45203C27.4324 4.02647 27.6032 3.52941 27.6342 3.01416C27.6653 2.49891 27.5555 1.98493 27.3167 1.52734C27.0778 1.06975 26.7189 0.685817 26.2784 0.416748C25.8379 0.147679 25.3324 0.00360064 24.8162 0Z" fill="#00D0BF"/>
<path d="M45.4382 10.3969C45.1284 9.98467 44.7123 9.66445 44.2344 9.47055C43.7565 9.27665 43.2349 9.2164 42.7254 9.29624C42.2159 9.37607 41.7377 9.59297 41.342 9.92374C40.9464 10.2545 40.6481 10.6867 40.4792 11.174C40.2861 11.7518 39.9177 12.2552 39.4252 12.614L23.7512 24.205L25.8832 27.0869L41.5573 15.4959C42.0446 15.1309 42.6335 14.9265 43.2422 14.911C43.7577 14.8923 44.2583 14.7338 44.6906 14.4524C45.1228 14.171 45.4704 13.7774 45.696 13.3136C45.9216 12.8498 46.0168 12.3333 45.9714 11.8195C45.926 11.3057 45.7417 10.814 45.4382 10.3969Z" fill="#00D0BF"/>
<path d="M49.5022 32.603C49.6381 32.1056 49.6363 31.5806 49.4967 31.0842C49.3572 30.5878 49.0852 30.1387 48.71 29.785C48.3348 29.4313 47.8705 29.1862 47.3668 29.0761C46.863 28.966 46.3388 28.995 45.8502 29.16C45.275 29.3608 44.6517 29.3783 44.0662 29.21L25.3032 23.921L24.3312 27.371L43.0942 32.659C43.6815 32.8207 44.204 33.1611 44.5892 33.633C44.9198 34.0289 45.3518 34.3275 45.839 34.4968C46.3262 34.666 46.8503 34.6995 47.3551 34.5936C47.8599 34.4878 48.3264 34.2467 48.7046 33.896C49.0828 33.5453 49.3585 33.0984 49.5022 32.603Z" fill="#00D0BF"/>
<path d="M35.2352 48.949C35.7054 48.7372 36.1092 48.4016 36.4034 47.9781C36.6975 47.5545 36.871 47.059 36.9052 46.5444C36.9394 46.0299 36.8331 45.5158 36.5976 45.057C36.3621 44.5982 36.0063 44.2121 35.5682 43.94C35.0474 43.6244 34.6375 43.1548 34.3952 42.596L26.5352 24.756L23.2552 26.202L31.1152 44.041C31.3636 44.5971 31.4335 45.2166 31.3152 45.814C31.2201 46.3209 31.2646 46.844 31.444 47.3275C31.6235 47.811 31.9311 48.2366 32.3338 48.5587C32.7365 48.8807 33.2193 49.0872 33.7304 49.156C34.2415 49.2248 34.7617 49.1532 35.2352 48.949Z" fill="#00D0BF"/>
<path d="M4.16522 10.3969C4.47505 9.98467 4.8912 9.66445 5.36908 9.47055C5.84696 9.27665 6.36855 9.2164 6.87805 9.29624C7.38755 9.37607 7.86574 9.59297 8.26141 9.92374C8.65708 10.2545 8.95532 10.6867 9.1242 11.174C9.31735 11.7516 9.68538 12.2548 10.1772 12.614L25.8512 24.205L23.7202 27.0869L8.0462 15.4959C7.55873 15.131 6.96992 14.9267 6.3612 14.911C5.84576 14.8923 5.34515 14.7338 4.9129 14.4524C4.48065 14.171 4.13304 13.7774 3.90741 13.3136C3.68177 12.8498 3.58661 12.3333 3.63202 11.8195C3.67743 11.3057 3.86173 10.814 4.16522 10.3969Z" fill="#00D0BF"/>
<path d="M0.100206 32.603C-0.0354565 32.1056 -0.0333401 31.5805 0.106371 31.0842C0.246081 30.5878 0.51812 30.1388 0.893358 29.7852C1.2686 29.4315 1.73294 29.1865 2.23668 29.0764C2.74043 28.9662 3.26464 28.9951 3.75322 29.16C4.32806 29.3607 4.95099 29.3783 5.53618 29.21L24.3002 23.921L25.2722 27.371L6.50823 32.659C5.92131 32.821 5.39921 33.1613 5.01421 33.633C4.68356 34.0289 4.25149 34.3274 3.76421 34.4966C3.27693 34.6658 2.75281 34.6993 2.24797 34.5934C1.74313 34.4876 1.27657 34.2465 0.898241 33.8959C0.519914 33.5453 0.244047 33.0984 0.100206 32.603Z" fill="#00D0BF"/>
<path d="M14.3672 48.949C13.8968 48.7374 13.4928 48.4018 13.1985 47.9782C12.9043 47.5546 12.7308 47.0589 12.6967 46.5443C12.6625 46.0296 12.7691 45.5153 13.0049 45.0565C13.2407 44.5978 13.5968 44.2118 14.0352 43.94C14.5561 43.6244 14.966 43.1548 15.2083 42.596L23.0682 24.756L26.3472 26.202L18.4882 44.041C18.2398 44.5971 18.1699 45.2166 18.2882 45.814C18.3831 46.3209 18.3383 46.8441 18.1588 47.3275C17.9792 47.8109 17.6716 48.2364 17.2688 48.5585C16.866 48.8805 16.3832 49.087 15.8721 49.1558C15.361 49.2245 14.8409 49.1531 14.3672 48.949Z" fill="#00D0BF"/>
<path d="M24.8172 31.82C28.2265 31.82 30.9902 29.0563 30.9902 25.647C30.9902 22.2377 28.2265 19.474 24.8172 19.474C21.408 19.474 18.6442 22.2377 18.6442 25.647C18.6442 29.0563 21.408 31.82 24.8172 31.82Z" fill="#00D0BF"/>
<path d="M24.8013 27.94C26.1428 27.94 27.2303 26.8525 27.2303 25.511C27.2303 24.1695 26.1428 23.082 24.8013 23.082C23.4598 23.082 22.3723 24.1695 22.3723 25.511C22.3723 26.8525 23.4598 27.94 24.8013 27.94Z" fill="url(#paint0_linear_490_5316)"/>
<path d="M24.8012 42.747C21.3923 42.7468 18.0599 41.7358 15.2256 39.8417C12.3913 37.9476 10.1823 35.2556 8.87789 32.106C7.57352 28.9565 7.23235 25.4909 7.8976 22.1475C8.56285 18.8041 10.2046 15.7329 12.6153 13.3226C15.0259 10.9122 18.0971 9.27089 21.4406 8.60603C24.7841 7.94117 28.2497 8.28268 31.3991 9.58741C34.5485 10.8921 37.2402 13.1015 39.134 15.936C41.0277 18.7706 42.0384 22.1031 42.0382 25.512C42.0329 30.0818 40.2151 34.4628 36.9837 37.6939C33.7522 40.925 29.371 42.7423 24.8012 42.747ZM24.8012 11.969C22.123 11.9692 19.5049 12.7636 17.2781 14.2517C15.0513 15.7397 13.3157 17.8547 12.2909 20.3292C11.266 22.8036 10.998 25.5263 11.5205 28.1531C12.0431 30.7799 13.3328 33.1929 15.2266 35.0867C17.1204 36.9805 19.5333 38.2702 22.1601 38.7927C24.7869 39.3153 27.5097 39.0472 29.9841 38.0223C32.4585 36.9975 34.5735 35.262 36.0616 33.0352C37.5497 30.8083 38.3441 28.1903 38.3443 25.512C38.3406 21.9213 36.9125 18.4788 34.3735 15.9398C31.8345 13.4008 28.3919 11.9727 24.8012 11.969Z" fill="#067090"/>
<defs>
<linearGradient id="paint0_linear_490_5316" x1="22.3723" y1="25.511" x2="27.2303" y2="25.511" gradientUnits="userSpaceOnUse">
<stop stop-color="#1E1A33"/>
<stop offset="1" stop-color="#0C0F63"/>
</linearGradient>
</defs>
</svg>
