<svg width="51" height="46" viewBox="0 0 51 46" fill="none" xmlns="http://www.w3.org/2000/svg">
<path d="M24.0301 43.9529C26.0326 43.9529 27.6561 42.3295 27.6561 40.3269C27.6561 38.3243 26.0326 36.7009 24.0301 36.7009C22.0275 36.7009 20.4041 38.3243 20.4041 40.3269C20.4041 42.3295 22.0275 43.9529 24.0301 43.9529Z" fill="#067090"/>
<path d="M39.887 11.7489C38.7521 7.77176 36.1383 4.37968 32.5818 2.2685C29.0253 0.157308 24.7958 -0.512958 20.7609 0.395266C16.7259 1.30349 13.1915 3.72135 10.8826 7.15277C8.57367 10.5842 7.66536 14.769 8.34399 18.8489C8.27899 18.8489 8.21502 18.8439 8.15002 18.8439C5.98851 18.8439 3.91551 19.7025 2.38708 21.231C0.858664 22.7594 0 24.8324 0 26.9939C0 29.1554 0.858664 31.2284 2.38708 32.7568C3.91551 34.2853 5.98851 35.1439 8.15002 35.1439C8.32302 35.1439 8.49406 35.1369 8.66406 35.1259V35.1439H37.53C37.848 35.1699 38.169 35.1859 38.493 35.1859C41.4919 35.1879 44.3782 34.0439 46.5615 31.988C48.7448 29.9321 50.06 27.1197 50.238 24.1261C50.4161 21.1325 49.4437 18.184 47.5195 15.8838C45.5954 13.5836 42.8649 12.1054 39.887 11.7519V11.7489Z" fill="#067090"/>
<path d="M24.1711 19.3429C26.2515 19.3429 27.9381 17.6564 27.9381 15.5759C27.9381 13.4954 26.2515 11.8089 24.1711 11.8089C22.0906 11.8089 20.4041 13.4954 20.4041 15.5759C20.4041 17.6564 22.0906 19.3429 24.1711 19.3429Z" fill="#067090"/>
<path d="M38.017 27.0819C40.0975 27.0819 41.784 25.3954 41.784 23.3149C41.784 21.2345 40.0975 19.5479 38.017 19.5479C35.9365 19.5479 34.25 21.2345 34.25 23.3149C34.25 25.3954 35.9365 27.0819 38.017 27.0819Z" fill="#067090"/>
<path d="M24.1711 20.9869C23.1016 20.9867 22.0561 20.6694 21.1669 20.0751C20.2777 19.4808 19.5848 18.6362 19.1756 17.648C18.7664 16.6599 18.6593 15.5726 18.868 14.5236C19.0767 13.4747 19.5918 12.5112 20.3481 11.7549C21.1043 10.9986 22.0678 10.4836 23.1168 10.2748C24.1657 10.0661 25.253 10.1732 26.2411 10.5824C27.2293 10.9916 28.074 11.6846 28.6683 12.5737C29.2626 13.4629 29.5798 14.5084 29.58 15.5779C29.5784 17.012 29.0081 18.3868 27.9941 19.4009C26.98 20.4149 25.6051 20.9853 24.1711 20.9869ZM24.1711 13.4539C23.751 13.4541 23.3404 13.5788 22.9913 13.8123C22.6421 14.0458 22.37 14.3776 22.2094 14.7658C22.0488 15.1539 22.007 15.5809 22.089 15.9929C22.1711 16.4048 22.3734 16.7832 22.6705 17.0801C22.9676 17.3771 23.3461 17.5793 23.7581 17.6611C24.1701 17.743 24.5971 17.7009 24.9852 17.5401C25.3732 17.3793 25.7048 17.1071 25.9382 16.7578C26.1715 16.4086 26.2961 15.9979 26.2961 15.5779C26.2961 15.0141 26.0722 14.4734 25.6738 14.0746C25.2753 13.6758 24.7348 13.4515 24.1711 13.4509V13.4539Z" fill="#00D0BF"/>
<path d="M38.017 28.7239C36.9472 28.7239 35.9015 28.4067 35.012 27.8123C34.1225 27.218 33.4292 26.3732 33.0198 25.3848C32.6104 24.3965 32.5032 23.3089 32.712 22.2596C32.9207 21.2104 33.4358 20.2466 34.1923 19.4902C34.9488 18.7337 35.9126 18.2185 36.9618 18.0098C38.0111 17.8011 39.0986 17.9082 40.087 18.3176C41.0753 18.727 41.9201 19.4203 42.5144 20.3098C43.1088 21.1993 43.4261 22.2451 43.4261 23.3149C43.4245 24.7489 42.854 26.1238 41.84 27.1379C40.826 28.1519 39.4511 28.7223 38.017 28.7239ZM38.017 21.1899C37.5967 21.1897 37.1858 21.3142 36.8362 21.5475C36.4866 21.7809 36.2141 22.1127 36.0531 22.501C35.8921 22.8892 35.8499 23.3166 35.9318 23.7289C36.0137 24.1411 36.216 24.5198 36.5131 24.8171C36.8102 25.1144 37.1889 25.3169 37.6011 25.399C38.0133 25.4811 38.4407 25.4391 38.829 25.2783C39.2174 25.1174 39.5493 24.8451 39.7829 24.4956C40.0164 24.1461 40.141 23.7352 40.141 23.3149C40.1413 22.7511 39.9177 22.2103 39.5194 21.8113C39.1212 21.4123 38.5808 21.1877 38.017 21.1869V21.1899Z" fill="#00D0BF"/>
<path d="M24.171 45.2329C23.1012 45.2329 22.0553 44.9157 21.1658 44.3213C20.2763 43.727 19.583 42.8822 19.1737 41.8939C18.7643 40.9055 18.6572 39.8179 18.8659 38.7687C19.0746 37.7194 19.5898 36.7556 20.3463 35.9991C21.1027 35.2427 22.0664 34.7276 23.1157 34.5189C24.1649 34.3101 25.2525 34.4173 26.2409 34.8267C27.2293 35.236 28.0741 35.9293 28.6684 36.8188C29.2628 37.7083 29.5799 38.7541 29.5799 39.8239C29.5783 41.258 29.008 42.6329 27.994 43.6469C26.9799 44.6609 25.605 45.2313 24.171 45.2329ZM24.171 37.6989C23.7507 37.6989 23.3399 37.8235 22.9904 38.057C22.641 38.2905 22.3685 38.6224 22.2077 39.0107C22.0469 39.399 22.0047 39.8262 22.0867 40.2385C22.1687 40.6507 22.3712 41.0293 22.6684 41.3265C22.9656 41.6237 23.3442 41.8261 23.7564 41.9081C24.1686 41.9901 24.5959 41.948 24.9842 41.7872C25.3725 41.6263 25.7043 41.354 25.9378 41.0045C26.1713 40.6551 26.296 40.2442 26.296 39.8239C26.2952 39.2606 26.071 38.7205 25.6727 38.3222C25.2743 37.9239 24.7343 37.6997 24.171 37.6989Z" fill="#00D0BF"/>
<path d="M25.915 35.8199H22.63C22.63 30.4809 27.33 30.0439 30.441 29.7539C34.677 29.3599 36.277 28.8949 36.277 25.5459H39.561C39.561 32.2029 34.256 32.6969 30.746 33.0239C26.887 33.3869 25.915 33.7499 25.915 35.8199Z" fill="#00D0BF"/>
<path d="M25.8131 18.8679H22.5291V37.4789H25.8131V18.8679Z" fill="#00D0BF"/>
</svg>
