<?xml version="1.0" encoding="UTF-8"?>
<svg xmlns="http://www.w3.org/2000/svg" width="144" height="33" viewBox="0 0 144 33" fill="none">
  <g clip-path="url(#clip0_490_4231)">
    <path d="M39.2176 21.343C38.7957 21.8674 38.2629 22.2906 37.658 22.5818C37.0531 22.8731 36.3913 23.0251 35.7206 23.0267C32.8092 23.0267 30.4816 20.8142 30.4816 16.7802C30.4816 12.8903 32.7596 10.5535 35.7206 10.5535C36.3927 10.5466 37.0574 10.6947 37.6636 10.9866C38.2698 11.2785 38.8014 11.7063 39.2176 12.2372V6.31058H42.9623V22.7172H40.2224C39.9561 22.7172 39.7006 22.6108 39.5122 22.4214C39.3237 22.232 39.2178 21.9751 39.2176 21.7071V21.343ZM39.2176 14.9445C38.9353 14.6196 38.5887 14.3577 38.1999 14.1756C37.8111 13.9935 37.3888 13.8951 36.96 13.8869C35.4649 13.8869 34.3633 14.9952 34.3633 16.766C34.3633 18.5368 35.4649 19.6687 36.96 19.6687C37.3893 19.6576 37.8116 19.5569 38.2002 19.3731C38.5888 19.1893 38.9352 18.9263 39.2176 18.6009V14.9445Z" fill="white" />
    <path d="M46.6466 24.1959C47.5004 24.1959 48.0402 24.0241 48.2377 23.5222L48.506 22.8826L43.8162 10.8266H47.0723C47.2795 10.8273 47.4815 10.8923 47.6505 11.0129C47.8196 11.1335 47.9474 11.3037 48.0166 11.5003L50.4449 18.3563L52.8968 11.5003C52.9659 11.3037 53.0938 11.1335 53.2628 11.0129C53.4319 10.8923 53.6339 10.8273 53.8411 10.8266H57.12L51.7952 24.4049C50.8407 26.9174 49.0552 27.4826 46.804 27.5301C46.2594 27.5221 45.7171 27.4565 45.1861 27.3345L45.5544 25.031C45.5937 24.7866 45.7207 24.5653 45.9114 24.4089C46.1022 24.2524 46.3433 24.1719 46.5891 24.1824L46.6466 24.1959Z" fill="white" />
    <path d="M57.9384 10.8536H61.7067V12.3576C62.1658 11.8202 62.7295 11.3832 63.363 11.0736C63.9966 10.764 64.6865 10.5883 65.3902 10.5575V13.1698C65.39 13.4171 65.2921 13.6543 65.1181 13.8292C64.9442 14.004 64.7083 14.1023 64.4624 14.1023C63.9505 14.0872 63.4409 14.1777 62.9651 14.3683C62.4892 14.5589 62.0573 14.8455 61.6957 15.2105V22.7322H57.9384V10.8536Z" fill="white" />
    <path d="M71.6916 10.5409C75.1885 10.5409 77.7207 13.1239 77.7207 17.1578C77.7211 17.2647 77.7005 17.3707 77.6601 17.4696C77.6197 17.5685 77.5603 17.6584 77.4853 17.7342C77.4103 17.8099 77.3212 17.87 77.223 17.911C77.1248 17.9521 77.0196 17.9732 76.9133 17.9732H69.3167C69.5379 19.0814 70.5663 20.0883 72.3313 20.0883C73.1625 20.0777 73.9779 19.8578 74.703 19.4487C74.8496 19.3605 75.0242 19.3319 75.1911 19.3689C75.3579 19.4058 75.5045 19.5054 75.6008 19.6474L76.8063 21.4419C75.389 22.5239 73.6435 23.0796 71.8655 23.0148C68.2175 23.0148 65.4043 20.6274 65.4043 16.7684C65.3912 15.9386 65.5455 15.1148 65.858 14.3469C66.1706 13.5789 66.6348 12.8827 67.2226 12.3005C67.8104 11.7183 68.5096 11.2621 69.2777 10.9597C70.0459 10.6572 70.8671 10.5147 71.6916 10.5409ZM69.2664 15.5113H74.1403C74.0792 14.917 73.7889 14.3706 73.3319 13.9891C72.8748 13.6076 72.2874 13.4214 71.6955 13.4706C71.1105 13.4441 70.5368 13.6389 70.0874 14.0166C69.638 14.3943 69.3454 14.9275 69.2672 15.5113H69.2664Z" fill="white" />
    <path d="M84.7145 10.5472C87.4206 10.4593 89.1022 11.6349 89.8363 12.7328L88.128 14.3287C87.9573 14.4966 87.7328 14.598 87.4947 14.6146C87.2565 14.6313 87.0202 14.5622 86.8281 14.4197C86.3911 14.0927 85.8713 13.8963 85.3284 13.853C84.7855 13.8098 84.2414 13.9214 83.7587 14.1752C83.2761 14.4289 82.8742 14.8144 82.5995 15.2875C82.3248 15.7605 82.1882 16.3019 82.2055 16.8495C82.2228 17.3971 82.3933 17.9287 82.6973 18.3833C83.0013 18.8378 83.4266 19.1969 83.9243 19.4193C84.4221 19.6417 84.9721 19.7184 85.5112 19.6405C86.0503 19.5627 86.5566 19.3335 86.9721 18.9793C87.0958 18.8647 87.2579 18.8011 87.4261 18.8011C87.5943 18.8011 87.7564 18.8647 87.8801 18.9793L89.8261 20.8213C89.2546 21.5526 88.5155 22.1336 87.672 22.5148C86.8285 22.896 85.9058 23.0659 84.9828 23.0101C81.3553 23.0101 78.6185 20.5925 78.5249 16.948C78.5164 15.2778 79.1604 13.6711 80.3181 12.4739C81.4758 11.2766 83.0546 10.5848 84.7145 10.5472Z" fill="white" />
    <path d="M96.8947 20.1247C96.8525 19.9601 96.7499 19.8176 96.6076 19.7258C96.4653 19.634 96.2938 19.5998 96.1275 19.63C96.0018 19.6556 95.874 19.6692 95.7458 19.6703C95.5952 19.6695 95.4464 19.6365 95.3093 19.5736C95.1722 19.5107 95.0499 19.4193 94.9505 19.3054C94.8511 19.1915 94.7768 19.0576 94.7325 18.9127C94.6883 18.7678 94.6751 18.6152 94.6938 18.4647V14.1339H96.0873C96.3537 14.1339 96.6092 14.0275 96.7976 13.8381C96.986 13.6487 97.092 13.3918 97.0922 13.1239V10.8536H94.6938V7.59061H90.949V19.5223C90.949 21.8092 92.2489 23.0148 94.6332 23.0148C95.6287 23.1081 96.6231 22.826 97.4235 22.2232L96.8947 20.1247Z" fill="white" />
    <path d="M97.8688 16.7676C97.8542 15.9247 98.0125 15.088 98.3339 14.3095C98.6554 13.531 99.1329 12.8276 99.7368 12.2432C100.341 11.6589 101.058 11.2061 101.844 10.9131C102.629 10.6202 103.467 10.4935 104.303 10.5409C108.316 10.5409 110.764 13.4199 110.764 16.7676C110.764 20.1152 108.366 23.014 104.303 23.014C100.241 23.014 97.8688 20.1113 97.8688 16.7676ZM106.913 16.7676C106.913 15.1915 105.985 13.8885 104.32 13.8885C102.655 13.8885 101.774 15.1915 101.774 16.7676C101.774 18.3436 102.682 19.6703 104.32 19.6703C105.957 19.6703 106.895 18.3634 106.895 16.7676H106.913Z" fill="white" />
    <path d="M112.356 10.8536H116.125V12.3576C116.584 11.8206 117.148 11.3841 117.782 11.0747C118.416 10.7654 119.106 10.5899 119.81 10.5591V13.203C119.809 13.3227 119.785 13.4411 119.738 13.5513C119.692 13.6615 119.624 13.7614 119.539 13.8451C119.454 13.9289 119.353 13.9949 119.243 14.0393C119.132 14.0837 119.014 14.1056 118.895 14.1038C118.383 14.0891 117.874 14.1798 117.398 14.3704C116.922 14.561 116.49 14.8474 116.129 15.2121V22.7322H112.356V10.8536Z" fill="white" />
    <path d="M121.128 18.3903C121.584 18.3899 122.029 18.5253 122.407 18.7794C122.786 19.0335 123.081 19.395 123.255 19.818C123.43 20.2409 123.475 20.7065 123.387 21.1556C123.298 21.6047 123.079 22.0172 122.757 22.3408C122.435 22.6645 122.024 22.8848 121.578 22.9738C121.131 23.0629 120.669 23.0166 120.248 22.8409C119.828 22.6653 119.469 22.3681 119.217 21.987C118.964 21.6059 118.83 21.1581 118.831 20.7002C118.843 20.0912 119.089 19.5106 119.517 19.08C119.946 18.6494 120.523 18.4023 121.128 18.3903Z" fill="white" />
    <path d="M125.57 7.17344C125.573 6.67617 125.747 6.19517 126.062 5.81219C126.377 5.42921 126.815 5.16788 127.3 5.07261C127.785 4.97735 128.288 5.05403 128.723 5.28961C129.159 5.5252 129.5 5.90516 129.688 6.36492C129.876 6.82468 129.901 7.33587 129.757 7.81162C129.613 8.28736 129.31 8.69831 128.899 8.97462C128.488 9.25092 127.994 9.37554 127.502 9.32728C127.01 9.27903 126.55 9.06089 126.2 8.70993C126 8.50813 125.841 8.26851 125.733 8.00484C125.625 7.74117 125.57 7.45863 125.57 7.17344ZM125.839 10.8385H129.607V22.718H125.839V10.8385Z" fill="white" />
    <path d="M131.104 16.7676C131.089 15.9247 131.247 15.088 131.569 14.3095C131.89 13.531 132.368 12.8276 132.972 12.2432C133.576 11.6589 134.293 11.2061 135.078 10.9131C135.864 10.6202 136.701 10.4935 137.538 10.5409C141.602 10.5409 143.999 13.4199 143.999 16.7676C143.999 20.1152 141.601 23.014 137.538 23.014C136.7 23.0589 135.863 22.9299 135.077 22.6348C134.291 22.3398 133.574 21.8851 132.97 21.2991C132.366 20.7131 131.889 20.0083 131.568 19.2287C131.247 18.4491 131.089 17.6113 131.104 16.7676ZM140.147 16.7676C140.147 15.1915 139.217 13.8885 137.551 13.8885C135.885 13.8885 135.008 15.1915 135.008 16.7676C135.008 18.3436 135.912 19.6703 137.551 19.6703C139.189 19.6703 140.126 18.3634 140.126 16.7676H140.147Z" fill="white" />
    <path d="M15.1538 25.3041C15.8884 24.8971 16.501 24.2992 16.9276 23.5728C17.3542 22.8463 17.5791 22.0181 17.579 21.1744V11.7227C17.5788 11.3842 17.491 11.0516 17.3241 10.7577C17.1571 10.4637 16.9169 10.2187 16.6271 10.0466C16.3373 9.87454 16.008 9.78145 15.6715 9.77651C15.335 9.77157 15.0031 9.85496 14.7084 10.0184L2.42201 16.8262C1.68704 17.2334 1.07425 17.8317 0.64765 18.5586C0.221047 19.2854 -0.0037196 20.1142 -0.00317283 20.9583V31.9923C-0.00275598 32.1679 0.0431177 32.3403 0.129927 32.4927C0.216736 32.645 0.341489 32.7719 0.491899 32.861C0.642309 32.9501 0.813188 32.9982 0.98771 33.0007C1.16223 33.0031 1.33438 32.9598 1.48719 32.8749L15.1538 25.3041Z" fill="#00D0BF" />
    <path opacity="0.6" d="M14.7116 10.0184L2.42518 16.8262C1.69021 17.2334 1.07743 17.8317 0.650824 18.5586C0.224221 19.2854 -0.000545771 20.1142 9.95166e-07 20.9583V26.4915L17.579 16.7739V11.7227C17.5789 11.3842 17.491 11.0516 17.3241 10.7577C17.1572 10.4637 16.9169 10.2187 16.6272 10.0466C16.3374 9.87454 16.008 9.78145 15.6715 9.77651C15.3351 9.77157 15.0031 9.85496 14.7085 10.0184H14.7116Z" fill="url(#paint0_linear_490_4231)" />
    <path d="M15.8573 8.68854L0.114087 0L0.0440538 5.10895C0.0352323 5.72038 0.192076 6.32269 0.497753 6.85124C0.80343 7.37979 1.2464 7.81463 1.77913 8.1091L17.5995 16.8649V11.6554C17.6013 11.0486 17.4401 10.4525 17.1328 9.93027C16.8256 9.40802 16.3838 8.97898 15.8542 8.68854H15.8573Z" fill="white" />
    <path d="M7.62411 4.1519L4.98096 2.69379V9.88384L7.62411 11.3459V4.1519Z" fill="#1F2572" />
    <path d="M2.63919 1.40112L0.113291 0L0.0432603 5.10895C0.0344388 5.72038 0.191282 6.32269 0.49696 6.85124C0.802637 7.37979 1.24561 7.81463 1.77834 8.1091L2.65257 8.59039L2.63919 1.40112Z" fill="#2E3192" />
    <path d="M15.8573 8.68855L14.976 8.20331V15.3997L17.6018 16.8475V11.638C17.6006 11.0342 17.4381 10.4418 17.1311 9.92294C16.8242 9.40403 16.3843 8.97769 15.8573 8.68855Z" fill="#000E33" />
    <path d="M12.6051 6.90033L9.97217 5.44855V12.6418L12.6051 14.0967V6.90033Z" fill="#0F1A52" />
  </g>
  <defs>
    <linearGradient id="paint0_linear_490_4231" x1="17.2626" y1="12.8018" x2="0.994352" y2="22.6889" gradientUnits="userSpaceOnUse">
      <stop stop-color="#1B1464" />
      <stop offset="1" stop-color="#9788FB" stop-opacity="0" />
    </linearGradient>
    <clipPath id="clip0_490_4231">
      <rect width="144" height="33" fill="white" />
    </clipPath>
  </defs>
</svg>