<?xml version="1.0" encoding="utf-8"?>
<svg viewBox="14.266 5.685 72.591 85.752" width="72.591" height="85.752" xmlns="http://www.w3.org/2000/svg">
  <path class="st0" d="M 47.492 71.903 L 61.657 71.903 C 64.784 71.549 67.145 68.953 67.263 65.824 L 67.263 45.404 C 67.263 42.69 65.079 40.506 62.365 40.506 C 59.65 40.506 57.467 42.69 57.467 45.404 L 57.467 58.389 C 57.467 59.392 57.054 60.278 56.404 60.985 C 55.696 61.693 54.751 62.047 53.807 62.047 L 47.374 62.047 C 46.076 62.047 44.837 62.578 43.892 63.523 C 42.948 64.467 42.475 65.706 42.475 67.005 C 42.534 69.779 44.778 71.903 47.492 71.903 Z M 53.866 25.339 L 39.702 25.339 C 36.575 25.693 34.214 28.29 34.095 31.418 L 34.095 51.837 C 34.095 54.553 36.28 56.736 38.994 56.736 C 41.709 56.736 43.892 54.553 43.892 51.837 L 43.892 38.913 C 43.892 36.847 45.545 35.253 47.551 35.253 L 53.984 35.253 C 55.283 35.253 56.581 34.723 57.467 33.779 C 58.41 32.834 58.882 31.595 58.882 30.296 C 58.764 27.464 56.522 25.28 53.866 25.339 Z M 56.227 15.483 C 67.734 15.483 77.06 24.809 77.06 36.316 L 77.06 76.388 C 76.588 79.162 74.345 81.345 71.572 81.641 L 44.896 81.641 C 33.387 81.641 24.063 72.316 24.063 60.808 L 24.063 21.916 C 24.063 20.204 24.712 18.552 25.952 17.372 C 27.131 16.191 28.784 15.483 30.496 15.483 L 56.227 15.483 M 56.227 5.686 L 30.496 5.686 C 21.526 5.686 14.266 12.946 14.266 21.916 L 14.266 60.808 C 14.266 77.746 28.016 91.437 44.896 91.437 L 72.044 91.437 C 79.833 90.789 86.03 84.769 86.857 76.978 L 86.857 36.257 C 86.857 28.113 83.61 20.322 77.887 14.599 C 72.162 8.874 64.312 5.627 56.227 5.686 Z" style="fill: rgb(81, 0, 152);"/>
</svg>